<svg width="17" height="17" viewBox="0 0 17 17" fill="none" xmlns="http://www.w3.org/2000/svg">
<path d="M5.86761 6.6598H7.30033V7.12029H7.36763C7.51472 7.1204 7.66083 7.14429 7.80034 7.19105V6.65979H8.74263V7.45154H8.26037C8.41997 7.58792 8.54643 7.75891 8.63011 7.95154H8.98303V8.74316H8.71908C8.68638 8.9214 8.61863 9.09139 8.51974 9.24316H12.1177C12.2558 9.24316 12.3677 9.13122 12.3677 8.99316V6.40979C12.3677 6.27174 12.2558 6.15979 12.1177 6.15979H11.1659V5.36816H12.1177C12.2558 5.36816 12.3677 5.25622 12.3677 5.11816V3.82654C12.3677 3.68848 12.2558 3.57654 12.1177 3.57654H10.9255V2.53479C10.9255 2.39674 10.8135 2.28479 10.6755 2.28479H10.4447V1.24316C10.4447 1.10511 10.3327 0.993164 10.1947 0.993164H7.31008C7.17203 0.993164 7.06008 1.10511 7.06008 1.24316V2.28479H5.8678C5.72974 2.28479 5.6178 2.39674 5.6178 2.53479V3.82654C5.6178 3.96459 5.72974 4.07654 5.8678 4.07654H6.81968V4.86816H5.8678C5.72974 4.86816 5.6178 4.98011 5.6178 5.11816V6.40979C5.6178 6.54785 5.72974 6.65979 5.8678 6.65979L5.86761 6.6598ZM10.185 8.74318H9.48315V7.95155H10.1852L10.185 8.74318ZM10.4254 7.45155H9.24273V6.6598H10.4254V7.45155ZM10.6658 6.1598H9.24273V5.36818H10.6658V6.1598ZM9.24273 4.86818V4.07655H9.94462V4.86818H9.24273ZM11.8677 8.74303H10.685V7.9514H11.8677V8.74303ZM11.8677 6.65966V7.4514H10.9254V6.65966H11.8677ZM10.4446 4.0764H11.8677V4.86803H10.4446V4.0764ZM9.24273 1.49303H9.94462V2.28466H9.24273V1.49303ZM9.00233 2.78466H10.4254V3.5764H9.00233V2.78466ZM8.74273 6.15952H8.04085V5.36789H8.74273V6.15952ZM7.56002 1.49295H8.74273V2.28458H7.56002V1.49295ZM8.5023 2.78458V3.57632H7.80042V2.78458H8.5023ZM7.31959 4.07632H8.7427V4.86795H7.31959V4.07632ZM6.1177 3.57632V2.78458H7.30042V3.57632H6.1177ZM6.1177 5.36795H7.54082V6.15958H6.1177V5.36795Z" fill="#8391A7"/>
<path d="M16.7428 8.24317C16.6047 8.24317 16.4928 8.35511 16.4928 8.49317V12.6183H15.9491C15.9778 12.5381 15.9926 12.4536 15.9928 12.3683V7.24317C15.993 6.89171 15.8693 6.55143 15.6433 6.28223C15.5122 6.39015 15.3681 6.481 15.2142 6.55254C15.3929 6.73814 15.4928 6.98557 15.4928 7.24317V12.3683C15.4927 12.5064 15.3809 12.6182 15.2428 12.6183H12.6178C12.4797 12.6183 12.3678 12.7303 12.3678 12.8683V16.0557C12.3678 16.212 12.2844 16.3565 12.1491 16.4347C12.0137 16.5128 11.8469 16.5128 11.7116 16.4347C11.5762 16.3565 11.4928 16.212 11.4928 16.0557V11.9932C11.4929 11.8606 11.5457 11.7335 11.6395 11.6398C11.7331 11.5461 11.8602 11.4933 11.9928 11.4932H13.2428C13.3809 11.4932 13.4928 11.3812 13.4928 11.2432V7.24317C13.4928 7.02007 13.5679 6.80343 13.7059 6.62823C13.5455 6.57243 13.3928 6.49642 13.2517 6.40189C13.0828 6.64988 12.9925 6.94306 12.9928 7.24318V10.9932H11.9928C11.7276 10.9935 11.4735 11.099 11.286 11.2864C11.0986 11.4739 10.9931 11.728 10.9928 11.9932V16.0557C10.9928 16.3907 11.1715 16.7002 11.4615 16.8677C11.7516 17.0351 12.109 17.0351 12.399 16.8677C12.6891 16.7002 12.8678 16.3907 12.8678 16.0557V13.1183H16.4929V16.7435C16.4929 16.8815 16.6049 16.9935 16.7429 16.9935C16.881 16.9935 16.9929 16.8815 16.9929 16.7435V8.49346C16.9929 8.3554 16.881 8.24346 16.7429 8.24346L16.7428 8.24317Z" fill="#8391A7"/>
<path d="M14.3677 6.24316C14.7656 6.24316 15.147 6.08513 15.4284 5.80388C15.7096 5.52252 15.8677 5.14105 15.8677 4.74316C15.8677 4.34528 15.7096 3.96382 15.4284 3.68245C15.147 3.4012 14.7656 3.24316 14.3677 3.24316C13.9698 3.24316 13.5883 3.4012 13.307 3.68245C13.0257 3.96381 12.8677 4.34528 12.8677 4.74316C12.8681 5.14082 13.0263 5.52208 13.3075 5.80331C13.5888 6.08454 13.97 6.24271 14.3677 6.24316ZM14.3677 3.74316C14.6329 3.74316 14.8872 3.84852 15.0748 4.03602C15.2623 4.22363 15.3677 4.47799 15.3677 4.74316C15.3677 5.00834 15.2623 5.26271 15.0748 5.45031C14.8872 5.63781 14.6328 5.74316 14.3677 5.74316C14.1025 5.74316 13.8481 5.63781 13.6605 5.45031C13.473 5.2627 13.3677 5.00834 13.3677 4.74316C13.368 4.47799 13.4735 4.22385 13.6609 4.03636C13.8484 3.84898 14.1025 3.74351 14.3677 3.74316V3.74316Z" fill="#8391A7"/>
<path d="M9.11792 16.243C9.11792 16.3811 9.00598 16.493 8.86792 16.493C8.72986 16.493 8.61792 16.3811 8.61792 16.243V10.8682H8.11792V16.243C8.11792 16.511 8.26089 16.7585 8.49292 16.8926C8.72495 17.0265 9.01089 17.0265 9.24292 16.8926C9.47495 16.7585 9.61792 16.511 9.61792 16.243V10.8682H9.11792V16.243Z" fill="#8391A7"/>
<path d="M5.7428 9.86816C5.60474 9.86816 5.4928 9.98011 5.4928 10.1182C5.4928 10.2562 5.60474 10.3682 5.7428 10.3682H11.9928C12.1309 10.3682 12.2428 10.2562 12.2428 10.1182C12.2428 9.98011 12.1309 9.86816 11.9928 9.86816H5.7428Z" fill="#8391A7"/>
<path d="M5.9928 10.9284H4.9928V8.87046L5.47606 9.19903C5.64481 9.3151 5.84592 9.37504 6.0506 9.37002H7.3678C7.6804 9.37002 7.96915 9.20327 8.12552 8.93261C8.28177 8.66197 8.28177 8.32839 8.12552 8.05773C7.96916 7.78708 7.68043 7.62033 7.3678 7.62033H6.36635L5.55663 7.15693H5.55674C5.2274 6.92858 4.92472 6.66396 4.65463 6.36799C4.51412 6.46865 4.3612 6.55057 4.1996 6.61185C4.21467 6.62759 4.23041 6.64332 4.2438 6.65895V6.65883C4.5544 7.00706 4.90597 7.31643 5.2908 7.58038C5.29459 7.58283 5.29839 7.58518 5.30229 7.5873L6.17572 8.08718C6.21356 8.10895 6.2563 8.12033 6.29994 8.12033H7.3678C7.57483 8.12033 7.74269 8.28808 7.74269 8.49522C7.74269 8.70225 7.57483 8.86999 7.3678 8.86999H6.0506C5.94792 8.87401 5.84658 8.84544 5.76109 8.7884L4.88329 8.19152V8.19141C4.80672 8.13929 4.70773 8.13382 4.62581 8.17712C4.544 8.22042 4.49277 8.30547 4.49277 8.3981V11.1784C4.49277 11.3164 4.60472 11.4284 4.74277 11.4284H5.99277C6.12648 11.4297 6.25427 11.4839 6.34792 11.5794C6.44167 11.6747 6.49379 11.8034 6.49278 11.9371V16.0559C6.49278 16.2123 6.40941 16.3567 6.27403 16.4349C6.13866 16.513 5.97192 16.513 5.83655 16.4349C5.70118 16.3567 5.6178 16.2123 5.6178 16.0559V12.7442C5.6178 12.6062 5.50586 12.4942 5.3678 12.4942H2.7428C2.67628 12.4949 2.61233 12.4689 2.56523 12.4218C2.51825 12.3748 2.49213 12.3109 2.4928 12.2443V7.30262C2.49001 7.04537 2.57561 6.79491 2.73521 6.59325C2.57874 6.52841 2.43118 6.44392 2.29604 6.3418C2.09615 6.62204 1.99001 6.95831 1.99281 7.30263V12.2443C1.99304 12.3292 2.00766 12.4133 2.03623 12.4932H1.4928V8.49322C1.4928 8.35517 1.38085 8.24322 1.2428 8.24322C1.10474 8.24322 0.992798 8.35517 0.992798 8.49322V16.7432C0.992798 16.8813 1.10474 16.9932 1.2428 16.9932C1.38085 16.9932 1.4928 16.8813 1.4928 16.7432V12.9932L5.11794 12.9942V16.0559C5.11794 16.3909 5.29662 16.7004 5.58668 16.8679C5.87674 17.0353 6.23411 17.0353 6.52417 16.8679C6.81423 16.7004 6.99291 16.3909 6.99291 16.0559V11.9371C6.99369 11.6708 6.88889 11.4151 6.70151 11.2259C6.51401 11.0369 6.25923 10.9298 5.99291 10.9284L5.9928 10.9284Z" fill="#8391A7"/>
<path d="M3.4928 6.24316C3.89068 6.24316 4.27214 6.08513 4.55351 5.80388C4.83476 5.52252 4.9928 5.14105 4.9928 4.74316C4.9928 4.34528 4.83476 3.96382 4.55351 3.68245C4.27215 3.4012 3.89068 3.24316 3.4928 3.24316C3.09491 3.24316 2.71346 3.4012 2.43208 3.68245C2.15083 3.96381 1.9928 4.34528 1.9928 4.74316C1.99324 5.14082 2.15139 5.52208 2.43265 5.80331C2.71392 6.08454 3.09517 6.24271 3.4928 6.24316ZM3.4928 3.74316C3.75798 3.74316 4.01234 3.84852 4.19994 4.03602C4.38744 4.22363 4.4928 4.47799 4.4928 4.74316C4.4928 5.00834 4.38744 5.26271 4.19994 5.45031C4.01233 5.63781 3.75797 5.74316 3.4928 5.74316C3.22763 5.74316 2.97326 5.63781 2.78566 5.45031C2.59816 5.2627 2.4928 5.00834 2.4928 4.74316C2.49313 4.47799 2.5986 4.22385 2.786 4.03636C2.9735 3.84898 3.22763 3.74351 3.4928 3.74316Z" fill="#8391A7"/>
</svg>
