<svg width="89" height="89" viewBox="0 0 89 89" fill="none" xmlns="http://www.w3.org/2000/svg">
<path d="M44.2372 0C45.4934 0 46.6207 0.631887 47.4271 1.65321C48.1935 2.62509 48.6693 3.95962 48.6693 5.42319C48.6693 5.9736 48.6025 6.50528 48.4775 7.00825C50.5677 7.96745 51.926 9.28731 52.8073 10.8451C53.4956 10.3521 54.3048 10.0135 55.2035 9.80909C56.3929 9.54124 57.7386 9.51251 59.1646 9.68151C59.3069 9.21729 59.5047 8.75572 59.7633 8.30886C60.4943 7.04174 61.5741 6.12403 62.7246 5.66575C63.9314 5.18549 65.2229 5.20153 66.3102 5.82873C67.3994 6.45729 68.0582 7.56675 68.2452 8.85334C68.4223 10.0777 68.1657 11.4677 67.4327 12.7382C67.158 13.2138 66.834 13.64 66.4765 14.012C67.8082 15.887 68.3234 17.7112 68.3094 19.5007C69.1507 19.4192 70.0193 19.5294 70.8973 19.8026C72.0647 20.1647 73.2441 20.8126 74.394 21.673C74.7481 21.3424 75.151 21.0411 75.596 20.7839C75.6107 20.7759 75.6248 20.7679 75.6395 20.7599C76.8977 20.0452 78.2722 19.796 79.4823 19.9717C80.7672 20.1587 81.8771 20.8173 82.508 21.9074H82.5093C83.1381 22.9962 83.1541 24.2853 82.6724 25.4917C82.2126 26.6426 81.2945 27.7213 80.0283 28.452C80.0136 28.46 79.9996 28.468 79.9849 28.476C79.5218 28.7392 79.0427 28.9389 78.5623 29.0779C78.7781 31.3663 78.3117 33.2052 77.403 34.7468C78.1741 35.0961 78.8717 35.6278 79.4977 36.3045C80.3216 37.1949 81.0179 38.3458 81.5859 39.669C82.0603 39.5588 82.5594 39.5 83.0753 39.5C84.5393 39.5 85.8743 39.9743 86.8466 40.7418C87.8683 41.548 88.5004 42.6742 88.5004 43.9305C88.5004 45.1863 87.8683 46.3132 86.8466 47.1193C85.8744 47.8854 84.5394 48.361 83.0753 48.361C82.5247 48.361 81.9928 48.2942 81.4896 48.1693C80.5301 50.2587 79.2098 51.6166 77.6514 52.4976C78.1446 53.1856 78.4833 53.9945 78.6878 54.8929C78.9557 56.0819 78.9845 57.4271 78.8154 58.8526C79.2798 58.9948 79.7415 59.1926 80.1886 59.4511C81.4561 60.1818 82.3742 61.2612 82.8326 62.4114C83.313 63.6177 83.297 64.9088 82.6696 65.9956C82.0408 67.0844 80.9309 67.7431 79.6439 67.93C78.4191 68.107 77.0286 67.8505 75.7576 67.1177C75.2819 66.8432 74.8556 66.5192 74.4834 66.1619C72.6077 67.4931 70.7828 68.0081 68.9927 67.9941C69.0742 68.8351 68.964 69.7034 68.6907 70.5812C68.3285 71.7481 67.6804 72.9271 66.8197 74.0765C67.1504 74.4305 67.4518 74.8333 67.709 75.2782C67.717 75.2929 67.7251 75.3069 67.7331 75.3216C68.4481 76.5794 68.6973 77.9534 68.5216 79.163C68.3345 80.4475 67.6756 81.557 66.5852 82.1877V82.189C65.496 82.8175 64.2064 82.8336 62.9996 82.352C61.8483 81.8924 60.7692 80.9746 60.0382 79.7089C60.0302 79.6942 60.0222 79.6801 60.0142 79.6654C59.7509 79.2026 59.5511 78.7236 59.4122 78.2434C57.1229 78.4591 55.2833 77.9929 53.7412 77.0845C53.3917 77.8553 52.8599 78.5526 52.183 79.1785C51.2923 80.0021 50.1409 80.6981 48.8172 81.2659C48.9275 81.7401 48.9863 82.2391 48.9863 82.7547C48.9863 84.2182 48.5119 85.5528 47.7441 86.5247C46.9376 87.546 45.811 88.1779 44.5542 88.1779C43.298 88.1779 42.1707 87.546 41.3643 86.5247C40.5979 85.5528 40.1221 84.2183 40.1221 82.7547C40.1221 82.2043 40.1889 81.6727 40.3139 81.1697C38.2237 80.2105 36.8654 78.8906 35.9841 77.3328C35.2958 77.8258 34.4866 78.1644 33.5879 78.3688C32.3985 78.6367 31.0528 78.6654 29.6268 78.4964C29.4845 78.9606 29.2867 79.4222 29.0281 79.8691C28.2971 81.1362 27.2173 82.0539 26.0668 82.5122C24.86 82.9924 23.5685 82.9764 22.4812 82.3492C21.392 81.7206 20.7332 80.6112 20.5462 79.3246C20.3691 78.1002 20.6257 76.7102 21.3587 75.4397C21.6334 74.9641 21.9574 74.538 22.3149 74.1659C20.9832 72.2909 20.468 70.4667 20.482 68.6772C19.6407 68.7587 18.7721 68.6485 17.8941 68.3753C16.7267 68.0133 15.5473 67.3654 14.3975 66.5049C14.0433 66.8369 13.6404 67.1368 13.1954 67.394C13.1807 67.402 13.1666 67.41 13.1519 67.418C11.8937 68.1327 10.5192 68.3819 9.30911 68.2062C8.02417 68.0192 6.91429 67.3606 6.28343 66.2705H6.28209C5.65331 65.1818 5.63728 63.8926 6.11905 62.6862C6.57877 61.5353 7.49688 60.4566 8.7631 59.7259C8.7778 59.7179 8.79184 59.7099 8.80654 59.7019C9.26959 59.4387 9.74869 59.239 10.2291 59.1001C10.0133 56.8116 10.4797 54.9727 11.3884 53.4311C10.6173 53.0818 9.91975 52.5501 9.29366 51.8735C8.46977 50.9831 7.77351 49.8321 7.20555 48.5089C6.73113 48.6191 6.23199 48.6779 5.71614 48.6779C4.25212 48.6779 2.91711 48.2037 1.94481 47.4362C0.923128 46.63 0.291016 45.5037 0.291016 44.2474C0.291016 42.9916 0.923128 41.8647 1.94481 41.0586C2.91704 40.2925 4.25205 39.8169 5.71614 39.8169C6.26674 39.8169 6.79862 39.8837 7.30177 40.0086C8.2613 37.9192 9.58164 36.5613 11.14 35.6803C10.6469 34.9923 10.3081 34.1834 10.1036 33.285C9.83566 32.096 9.80692 30.7508 9.97598 29.3254C9.51159 29.1831 9.04985 28.9854 8.60284 28.7269C7.33526 27.9961 6.41723 26.9167 5.95879 25.7666C5.47835 24.5602 5.4944 23.2691 6.12183 22.1823C6.75061 21.0935 7.86047 20.4349 9.14751 20.248C10.3723 20.0709 11.7628 20.3274 13.0338 21.0602C13.5095 21.3347 13.9359 21.6587 14.308 22.016C16.1837 20.6848 18.0086 20.1698 19.7987 20.1838C19.7172 19.3428 19.8274 18.4745 20.1007 17.5968C20.4629 16.4299 21.111 15.2509 21.9717 14.1014C21.6397 13.7474 21.3396 13.3446 21.0824 12.8998C21.0744 12.8851 21.0663 12.871 21.0583 12.8563C20.3433 11.5986 20.0941 10.2245 20.2698 9.01488C20.4569 7.7304 21.1158 6.62091 22.2062 5.99028V5.98894C23.2954 5.36039 24.585 5.34436 25.7918 5.82596C26.9431 6.28551 28.0222 7.20329 28.7532 8.46907C28.7612 8.48376 28.7692 8.49779 28.7772 8.51249C29.0405 8.97538 29.2403 9.45431 29.3793 9.93457C31.6685 9.71882 33.5081 10.1851 35.0502 11.0935C35.3997 10.3227 35.9315 9.62531 36.6084 8.99944C37.4991 8.17584 38.6505 7.47983 39.9742 6.91207C39.8639 6.43782 39.8051 5.93885 39.8051 5.42319C39.8051 3.95969 40.2795 2.62516 41.0473 1.65321C41.8538 0.631889 42.9804 1.63076e-06 44.2372 1.63076e-06V0ZM53.4302 12.1802C53.8706 13.3391 54.1165 14.5948 54.2528 15.9053C54.4686 15.7858 54.6871 15.6742 54.9076 15.5687C55.2765 15.395 55.6513 15.24 56.0315 15.1045V15.1058C56.0776 15.0898 56.1271 15.0771 56.1765 15.0704C56.4398 15.0337 58.1623 15.9341 59.7929 16.8739C60.9248 17.5265 62.0633 18.2292 62.6855 18.6807C62.8899 18.7368 63.067 18.8804 63.1579 19.0875C63.1612 19.0941 63.1646 19.1001 63.1672 19.1048H63.1659L63.1706 19.1162C63.1913 19.1689 63.206 19.2217 63.214 19.2745H63.2127C63.9631 23.4272 62.4222 26.9687 60.88 30.5116C60.1443 32.2002 59.4092 33.8902 58.9496 35.6155C58.9462 35.6316 58.9415 35.6489 58.9369 35.665C58.7291 36.3563 58.7438 36.8112 58.8794 37.0329C58.8941 37.055 58.8988 37.0663 58.8988 37.0663C58.9001 37.0663 58.9068 37.063 58.9275 37.057C59.1367 36.9949 59.3892 36.7317 59.6251 36.2347C60.2398 33.6463 61.7118 31.1563 63.1852 28.6667C65.8706 24.1259 68.5542 19.5838 65.3549 14.9301C65.0689 15.1105 64.7722 15.2621 64.4722 15.3817C63.2654 15.8619 61.9739 15.8459 60.8866 15.2187C59.7975 14.5901 59.1386 13.4807 58.9516 12.1941C58.9008 11.8427 58.8861 11.4774 58.9068 11.104C57.6693 10.9637 56.5187 10.9891 55.5204 11.2155C54.7092 11.3992 54.0002 11.7152 53.4323 12.1827L53.4302 12.1802ZM54.3624 17.4551C54.4198 18.7316 54.4071 20.0435 54.3924 21.3559C54.3637 24.168 54.335 26.9788 55.0553 29.3326C55.07 29.3787 55.0793 29.4268 55.0827 29.4729C55.1836 30.5115 54.923 31.289 54.5047 31.7299C54.2682 31.979 53.9795 32.132 53.6614 32.1814C53.3467 32.2295 53.0246 32.1734 52.7166 32.0044C52.166 31.7025 51.6435 31.0071 51.3722 29.8816C50.8757 28.0528 50.6599 26.1518 50.4427 24.2507C50.0358 20.6631 49.6269 17.0754 47.2388 14.1993C47.0263 14.1785 45.6425 14.2634 44.1156 14.2634V14.2667C42.5861 14.2667 41.2037 14.1772 40.9924 14.1999C40.7833 14.4524 40.5901 14.7042 40.4144 14.9567C40.218 15.2393 40.0362 15.5345 39.8698 15.8391C39.8251 15.9186 39.7689 15.9874 39.7021 16.0435C40.3904 17.1209 41.0352 18.2637 41.6799 19.406V19.4073L41.6812 19.406C43.0624 21.854 44.4435 24.3022 46.241 25.9781C46.2858 26.0195 46.3225 26.0643 46.3546 26.1137C46.9453 26.9533 47.105 27.7449 46.9646 28.3307C46.8831 28.6694 46.7107 28.9466 46.4615 29.1463C46.2142 29.344 45.9062 29.4562 45.5514 29.4636C44.9226 29.4783 44.1175 29.1316 43.315 28.2793C41.9726 26.9433 40.8434 25.4164 39.7133 23.8874C37.5657 20.9843 35.4169 18.0815 31.9095 16.7836C31.715 16.8731 30.5557 17.6359 29.2367 18.3974V18.3987C27.907 19.1662 26.6581 19.7901 26.497 19.907C26.4442 20.2149 26.4041 20.5275 26.3787 20.8488C26.3487 21.2128 26.3373 21.5575 26.3453 21.8848C26.3467 21.9743 26.3326 22.0618 26.3039 22.142C27.4392 22.7311 28.5691 23.3977 29.6998 24.065C32.1199 25.4951 34.5423 26.9253 36.9371 27.479C36.9852 27.4903 37.03 27.5044 37.0727 27.5237C38.0242 27.9566 38.5702 28.5704 38.7425 29.1549C38.8401 29.4855 38.8287 29.8108 38.7125 30.1074C38.5975 30.404 38.3871 30.6565 38.0864 30.8381C37.5465 31.1668 36.6751 31.269 35.5545 30.9323L35.5465 30.929C33.7182 30.442 31.9784 29.6859 30.2363 28.9278C26.9234 27.4863 23.6105 26.0456 19.9273 26.6741C19.809 26.835 19.1836 28.0834 18.4185 29.4093C17.6554 30.7292 16.8924 31.8909 16.8028 32.0846C16.9164 32.3945 17.0394 32.6864 17.1703 32.9623C17.3233 33.2876 17.4864 33.5928 17.6588 33.8754C17.7049 33.9535 17.737 34.0364 17.7517 34.1199C19.0286 34.0624 20.341 34.0751 21.6539 34.0898C24.4669 34.1185 27.2788 34.1472 29.6334 33.4272C29.6795 33.4125 29.7276 33.4031 29.7737 33.3998C30.8128 33.2989 31.5905 33.5594 32.0315 33.9776C32.2808 34.214 32.4338 34.5026 32.4832 34.8205C32.5313 35.1351 32.4752 35.4571 32.3061 35.765C32.0041 36.3154 31.3085 36.8378 30.1826 37.109C28.3531 37.6053 26.4515 37.821 24.5497 38.0381C20.9608 38.4449 17.3719 38.8537 14.4947 41.2409C14.4739 41.4533 14.5588 42.8366 14.5588 44.363H14.5621C14.5621 45.8919 14.4746 47.2739 14.4953 47.485C14.7479 47.6941 14.9998 47.8872 15.2524 48.0628C15.535 48.2592 15.8304 48.4409 16.1351 48.6072C16.2146 48.652 16.2834 48.7081 16.3396 48.7749C17.4174 48.0869 18.5606 47.4423 19.7033 46.7978H19.7046L19.7033 46.7965C22.1521 45.4158 24.6012 44.0352 26.2777 42.2383C26.3192 42.1936 26.3639 42.1569 26.4134 42.1248C27.2533 41.5343 28.0451 41.3747 28.6311 41.5149C28.9699 41.5964 29.2472 41.7688 29.447 42.0179C29.6448 42.2651 29.7571 42.573 29.7644 42.9277C29.7791 43.5562 29.4323 44.3611 28.5797 45.1633C27.2433 46.5052 25.7158 47.6341 24.1862 48.7637C21.2822 50.9105 18.3783 53.0586 17.0799 56.5647C17.1695 56.7591 17.9326 57.918 18.6943 59.2366H18.6956C19.4634 60.5658 20.0875 61.8142 20.2044 61.9753C20.5125 62.028 20.8252 62.0681 21.1466 62.0935C21.5107 62.1236 21.8555 62.1349 22.183 62.1269C22.2725 62.1256 22.36 62.1396 22.4402 62.1683C23.0296 61.0335 23.6964 59.904 24.3639 58.7737C25.7945 56.3544 27.2252 53.9329 27.7791 51.5389C27.7905 51.4908 27.8045 51.4461 27.8239 51.4033C28.2569 50.4522 28.871 49.9064 29.4556 49.7341C29.7864 49.6366 30.1118 49.6479 30.4085 49.7642C30.7052 49.8791 30.9577 50.0895 31.1395 50.3901C31.4682 50.9298 31.5705 51.8008 31.2337 52.921L31.2304 52.929C30.7432 54.7566 29.9869 56.4959 29.2285 58.2373C27.7865 61.549 26.3453 64.8607 26.9739 68.5426C27.1349 68.6609 28.3838 69.2861 29.7102 70.0509C31.0305 70.8137 32.1926 71.5765 32.3864 71.666C32.6964 71.5525 32.9884 71.4296 33.2644 71.2986C33.5898 71.1457 33.8952 70.9827 34.1778 70.8103C34.256 70.7643 34.3388 70.7322 34.4224 70.7175C34.3649 69.441 34.3776 68.1291 34.3923 66.8167C34.421 64.0047 34.4498 61.1938 33.7294 58.84C33.7147 58.7939 33.7054 58.7458 33.7021 58.6997C33.6012 57.6611 33.8618 56.8836 34.28 56.4427C34.5166 56.1936 34.8052 56.0406 35.1233 55.9912C35.438 55.9431 35.7601 55.9992 36.0681 56.1682C36.6187 56.4701 37.1413 57.1655 37.4126 58.291C37.909 60.1198 38.1249 62.0208 38.342 63.9219C38.7489 67.5095 39.1579 71.0972 41.5459 73.9734C41.7584 73.9941 43.1423 73.9092 44.6691 73.9092V73.9059C46.1986 73.9059 47.5811 73.9934 47.7923 73.9727C48.0015 73.7202 48.1946 73.4684 48.3703 73.2159C48.5668 72.9333 48.7485 72.6381 48.9149 72.3335C49.0746 72.0429 49.0332 72.0523 48.8093 71.6969C48.1805 70.6943 47.6981 69.8219 47.1041 68.7665V68.7652L47.1027 68.7665C45.7216 66.3185 44.3405 63.8704 42.543 62.1944C42.4982 62.153 42.4615 62.1082 42.4294 62.0588C41.8387 61.2192 41.679 60.4277 41.8193 59.8418C41.9009 59.5032 42.0733 59.226 42.3225 59.0263C42.5697 58.8286 42.8778 58.7163 43.2326 58.709C43.8614 58.6943 44.6665 59.041 45.469 59.8933C46.8114 61.2292 47.9406 62.7561 49.0706 64.2852C51.2183 67.1882 53.3671 70.0911 56.8745 71.3889C57.0689 71.2994 58.2283 70.5366 59.5473 69.7751V69.7738C60.877 69.0063 62.1258 68.3824 62.287 68.2655C62.3397 67.9576 62.3798 67.645 62.4052 67.3237C62.4353 66.9597 62.4467 66.615 62.4386 66.2877C62.4373 66.1982 62.4513 66.1107 62.4801 66.0306C61.3448 65.4414 60.2149 64.7748 59.0842 64.1075C56.6641 62.6774 54.2417 61.2472 51.8469 60.6936C51.7988 60.6822 51.754 60.6682 51.7113 60.6488C50.7597 60.216 50.2138 59.6021 50.0414 59.0176C49.9439 58.687 49.9552 58.3617 50.0715 58.0651C50.1864 57.7686 50.3969 57.5161 50.6976 57.3344C51.2375 57.0057 52.1088 56.9036 53.2294 57.2402L53.2375 57.2435C55.0657 57.7305 56.8056 58.4866 58.5476 59.2447C61.8605 60.6862 65.1734 62.1269 68.8567 61.4985C68.9749 61.3375 69.6004 60.0891 70.3654 58.7632C71.1285 57.4433 71.8916 56.2817 71.9811 56.0879C71.8676 55.778 71.7446 55.4861 71.6136 55.2102C71.4606 54.885 71.2976 54.5797 71.1252 54.2972C71.0791 54.219 71.047 54.1362 71.0323 54.0527C69.7554 54.1101 68.443 54.0974 67.1301 54.0827C64.3171 54.054 61.5052 54.0253 59.1506 54.7453C59.1045 54.76 59.0564 54.7694 59.0103 54.7727C57.9712 54.8736 57.1934 54.6131 56.7524 54.195C56.5032 53.9585 56.3502 53.6699 56.3008 53.352C56.2526 53.0374 56.3088 52.7154 56.4778 52.4075C56.7799 51.8571 57.4754 51.3348 58.6014 51.0636C60.4308 50.5673 62.3325 50.3515 64.2343 50.1344C67.8231 49.7276 71.4121 49.3189 74.2893 46.9316C74.31 46.7192 74.2252 45.3359 74.2252 43.8096H74.2218C74.2218 42.2806 74.3114 40.8987 74.2886 40.6875C74.0361 40.4784 73.7841 40.2854 73.5316 40.1097C73.2489 39.9133 72.9536 39.7316 72.6489 39.5653C72.5694 39.5206 72.5005 39.4645 72.4444 39.3977C71.3666 40.0857 70.2234 40.7302 69.0807 41.3747H69.0794L69.0807 41.3761C66.6318 42.7567 64.1828 44.1373 62.5062 45.9342C62.4648 45.9789 62.42 46.0157 62.3706 46.0477C61.5307 46.6382 60.7388 46.7979 60.1528 46.6576C59.814 46.5761 59.5367 46.4038 59.337 46.1546C59.1392 45.9075 59.0269 45.5995 59.0196 45.2449C59.0049 44.6163 59.3517 43.8114 60.2043 43.0092C61.5407 41.6673 63.0681 40.5385 64.5977 39.4089C67.5018 37.262 70.4057 35.1139 71.704 31.6078C71.6145 31.4134 70.8514 30.2545 70.0897 28.936H70.0883C69.3206 27.6067 68.6965 26.3583 68.5795 26.1973C68.2715 26.1445 67.9588 26.1044 67.6374 26.079C67.2732 26.049 66.9284 26.0376 66.601 26.0456C66.5115 26.047 66.4239 26.0329 66.3438 26.0042C65.7544 27.1391 65.0875 28.2686 64.42 29.3989C62.9894 31.8181 61.5587 34.2396 61.0048 36.6336C60.9935 36.6817 60.9795 36.7264 60.9601 36.7692C60.5271 37.7204 59.913 38.2661 59.3283 38.4384C58.9976 38.5359 58.6722 38.5246 58.3755 38.4084C58.0788 38.2935 57.8262 38.0831 57.6445 37.7825C57.3157 37.2428 57.2135 36.3717 57.5503 35.2515L57.5536 35.2435C58.0407 33.4159 58.7971 31.6767 59.5555 29.9352C60.9975 26.6235 62.4387 23.3118 61.8101 19.6299C61.649 19.5117 60.4002 18.8865 59.0738 18.1217C57.7534 17.3588 56.5914 16.596 56.3976 16.5065C56.0875 16.6201 55.7956 16.743 55.5196 16.8739C55.1942 17.0269 54.8888 17.1898 54.6062 17.3622C54.528 17.4083 54.4451 17.4403 54.3616 17.455L54.3624 17.4551ZM67.0281 24.6069C67.2753 24.6102 67.5199 24.6229 67.7611 24.6423C68.1313 24.6724 68.5182 24.7238 68.9217 24.7973L68.9425 24.8006C68.9505 24.8019 68.9598 24.804 68.9678 24.8053C69.016 24.8133 69.0634 24.8273 69.1115 24.8467C69.3587 24.9476 70.4018 26.5881 71.3419 28.2172H71.3406L71.3419 28.2186C71.9948 29.3488 72.6289 30.525 72.9416 31.2257C72.9911 31.2752 73.0345 31.3326 73.0679 31.3947C73.0746 31.4061 73.0806 31.4188 73.0873 31.4315C73.1655 31.5971 73.1802 31.7935 73.1127 31.9805C71.6914 35.9643 68.5769 38.2654 65.4617 40.5685C63.977 41.6667 62.4923 42.7648 61.2294 44.0319C61.2201 44.0433 61.2087 44.0526 61.1993 44.062C60.6755 44.5549 60.4603 44.9571 60.4663 45.2209C60.4663 45.2429 60.4677 45.2563 60.4677 45.2563C60.4677 45.2563 60.4757 45.2576 60.493 45.263C60.7055 45.3137 61.0563 45.2122 61.5087 44.9009C63.337 42.9652 65.858 41.543 68.3805 40.1224L68.3818 40.1237C72.977 37.5335 77.5716 34.943 77.1292 29.3127C76.7905 29.3274 76.4604 29.3094 76.141 29.2633C74.856 29.0763 73.7462 28.4177 73.1153 27.3276H73.114C72.4852 26.2389 72.4691 24.9497 72.9509 23.7433C73.0832 23.4114 73.2529 23.0874 73.4588 22.7748C72.4578 22.034 71.4488 21.4823 70.4719 21.1791C69.6788 20.9332 68.9057 20.8517 68.1794 20.9713C67.9816 22.1957 67.566 23.4053 67.0281 24.6071L67.0281 24.6069ZM66.8156 9.0574C66.6913 8.20041 66.271 7.47101 65.5861 7.07691C64.9012 6.68081 64.0599 6.68281 63.2534 7.00343C62.3914 7.34676 61.5755 8.05013 61.0089 9.03198C60.4436 10.0105 60.2445 11.0699 60.3768 11.9911C60.5011 12.8481 60.9214 13.5775 61.6063 13.9716C62.2912 14.3677 63.1324 14.3657 63.939 14.0451C64.3112 13.8968 64.6734 13.681 65.0121 13.4065C65.0282 13.3905 65.0455 13.3764 65.0649 13.3604C65.0729 13.3537 65.0796 13.349 65.087 13.343C65.5039 12.989 65.8788 12.5435 66.1835 12.0165C66.7488 11.0379 66.9479 9.97852 66.8156 9.05735L66.8156 9.0574ZM73.7381 38.5271C73.9439 38.6514 74.1497 38.7843 74.3542 38.9259C74.6783 39.151 74.993 39.3921 75.2964 39.6486L75.2977 39.65C75.3438 39.6867 75.3839 39.7268 75.4207 39.7729L75.4193 39.7742L75.4207 39.7756C75.5864 39.9893 75.6712 41.9317 75.6712 43.8101H75.6679C75.6679 45.1126 75.6278 46.4452 75.5496 47.2114C75.6084 47.4238 75.569 47.6616 75.42 47.848C75.3832 47.8941 75.3432 47.9341 75.2971 47.9709C72.077 50.6967 68.2356 51.1323 64.396 51.5685C62.5585 51.7776 60.7222 51.9866 58.9835 52.4575L58.9581 52.4642C58.2585 52.6299 57.8723 52.8683 57.746 53.0961C57.7333 53.1181 57.7267 53.1315 57.7267 53.1315C57.7267 53.1348 57.7347 53.1348 57.7487 53.1489C57.9071 53.2992 58.2625 53.3867 58.8105 53.3419C61.357 52.5804 64.2496 52.6112 67.1443 52.6399C72.4223 52.694 77.7005 52.7468 80.1321 47.6522C79.832 47.4939 79.5527 47.3136 79.2988 47.1125C78.2771 46.3063 77.645 45.1801 77.645 43.9238C77.645 42.668 78.2771 41.5411 79.2988 40.735C79.5781 40.5146 79.8882 40.3182 80.2229 40.1492C79.7265 39.013 79.1291 38.0297 78.4314 37.2749C77.8681 36.665 77.2407 36.2088 76.5505 35.9517C75.7667 36.9122 74.8024 37.7517 73.734 38.5247L73.7381 38.5271ZM81.3328 24.9595C81.6535 24.1533 81.6555 23.3123 81.2593 22.6276H81.2606L81.2593 22.6263C80.8651 21.9429 80.1367 21.5248 79.2781 21.4006C78.3667 21.2683 77.3222 21.4613 76.3533 22.0104C76.342 22.0184 76.3313 22.0251 76.3179 22.0311C75.3363 22.5975 74.6321 23.4131 74.2887 24.2748C73.9679 25.081 73.9659 25.922 74.3622 26.6067H74.3608L74.3622 26.608C74.7564 27.2913 75.4847 27.7095 76.3434 27.8337C76.7456 27.8925 77.1753 27.8865 77.6109 27.8163C77.6283 27.813 77.6463 27.8097 77.6637 27.807L77.6751 27.8057C78.207 27.7115 78.7482 27.5184 79.2667 27.2245C79.2781 27.2165 79.2888 27.2098 79.3022 27.2038C80.2837 26.6374 80.988 25.8218 81.3314 24.9602L81.3328 24.9595ZM72.5867 53.9368C72.7064 54.1525 72.8179 54.3709 72.9235 54.5914C73.0973 54.9601 73.2523 55.3348 73.3879 55.7149H73.3866C73.4026 55.761 73.4153 55.8104 73.422 55.8598C73.4587 56.123 72.558 57.8449 71.6178 59.4749C70.965 60.6064 70.2621 61.7445 69.8104 62.3664C69.7543 62.5708 69.6106 62.7479 69.4035 62.8387C69.3968 62.842 69.3908 62.8454 69.3861 62.848V62.8467L69.3748 62.8514C69.322 62.8721 69.2692 62.8868 69.2164 62.8948V62.8935C65.0622 63.6436 61.5195 62.1033 57.9753 60.5616C56.2861 59.8261 54.5955 59.0914 52.8695 58.6319C52.8535 58.6285 52.8361 58.6238 52.8201 58.6192C52.1285 58.4114 51.6735 58.4261 51.4516 58.5617C51.4296 58.5764 51.4182 58.5811 51.4182 58.5811C51.4182 58.5824 51.4216 58.5891 51.4276 58.6098C51.4897 58.8189 51.753 59.0714 52.2501 59.3072C54.8394 59.9217 57.3304 61.3932 59.8208 62.866C64.3633 65.5505 68.907 68.2331 73.5623 65.0349C73.3819 64.749 73.2302 64.4524 73.1106 64.1525C72.6302 62.9462 72.6462 61.6551 73.2737 60.5682C73.9024 59.4795 75.0123 58.8208 76.2993 58.6339C76.6508 58.5831 77.0163 58.5684 77.3898 58.5892C77.5302 57.3521 77.5048 56.2019 77.2782 55.2039C77.0945 54.393 76.7784 53.6843 76.3107 53.1165C75.1514 53.5567 73.8952 53.8025 72.5842 53.9388L72.5867 53.9368ZM85.9528 45.9794C86.633 45.443 87.0526 44.7156 87.0526 43.9254C87.0526 43.1338 86.633 42.4078 85.9528 41.8713C85.2231 41.2969 84.2061 40.9409 83.0742 40.9409C81.9423 40.9409 80.924 41.2969 80.1956 41.8713C79.5154 42.4077 79.0958 43.1351 79.0958 43.9254C79.0958 44.7169 79.5154 45.443 80.1956 45.9794C80.9253 46.5538 81.9423 46.9099 83.0742 46.9099C84.2061 46.9099 85.2244 46.5538 85.9528 45.9794ZM63.8828 66.7094C63.8794 66.9566 63.8667 67.201 63.8474 67.4422C63.8173 67.8122 63.7658 68.199 63.6923 68.6024L63.689 68.6231C63.6877 68.6312 63.6856 68.6405 63.6843 68.6485C63.6763 68.6966 63.6623 68.744 63.6429 68.7921C63.542 69.0393 61.9008 70.082 60.2711 71.0218V71.0204L60.2698 71.0218C59.1392 71.6744 57.9626 72.3083 57.2616 72.6209C57.2121 72.6703 57.1547 72.7137 57.0925 72.7471C57.0812 72.7538 57.0685 72.7598 57.0558 72.7665C56.8901 72.8447 56.6936 72.8594 56.5065 72.7919C52.5214 71.3711 50.2194 68.2577 47.9154 65.1437C46.8169 63.6595 45.7184 62.1753 44.4508 60.9128C44.4395 60.9035 44.4301 60.8921 44.4208 60.8828C43.9276 60.3591 43.5254 60.144 43.2614 60.15C43.2394 60.15 43.226 60.1514 43.226 60.1514C43.226 60.1514 43.2247 60.1594 43.2193 60.1768C43.1686 60.3892 43.2701 60.7398 43.5815 61.192C45.5179 63.0197 46.9406 65.5398 48.3617 68.0614L48.3604 68.0627C50.9516 72.6562 53.543 77.2492 59.1752 76.807C59.1605 76.4683 59.1786 76.1384 59.2247 75.8191C59.4118 74.5346 60.0706 73.4251 61.1611 72.7945V72.7932C62.2502 72.1646 63.5398 72.1486 64.7466 72.6302C65.0787 72.7624 65.4028 72.9321 65.7155 73.1378C66.4566 72.1372 67.0085 71.1286 67.3118 70.152C67.5577 69.3592 67.6393 68.5864 67.5197 67.8603C66.2948 67.6626 65.0848 67.2472 63.8826 66.7094H63.8828ZM79.4378 66.497C80.2951 66.3728 81.0248 65.9526 81.419 65.268C81.8153 64.5833 81.8133 63.7424 81.4925 62.9361C81.1491 62.0744 80.4454 61.2588 79.4632 60.6924C78.4843 60.1273 77.4246 59.9283 76.5031 60.0605C75.6458 60.1848 74.9161 60.6049 74.5219 61.2896C74.1256 61.9742 74.1276 62.8152 74.4484 63.6215C74.5967 63.9935 74.8125 64.3556 75.0872 64.6942C75.1032 64.7102 75.1172 64.7276 75.1333 64.747C75.14 64.755 75.1446 64.7617 75.1507 64.769C75.5048 65.1858 75.9505 65.5606 76.4777 65.8652C77.4566 66.4302 78.5164 66.6293 79.4379 66.497L79.4378 66.497ZM49.9576 73.4171C49.8333 73.6228 49.7003 73.8286 49.5587 74.033C49.3335 74.3569 49.0923 74.6716 48.8357 74.9748L48.8343 74.9761C48.7976 75.0222 48.7575 75.0623 48.7114 75.0991L48.71 75.0977L48.7087 75.0991C48.4949 75.2647 46.5518 75.3495 44.6728 75.3495V75.3462C43.3698 75.3462 42.0367 75.3061 41.2702 75.228C41.0577 75.2867 40.8199 75.2473 40.6334 75.0984C40.5873 75.0616 40.5472 75.0216 40.5105 74.9755C37.7836 71.7566 37.3479 67.9165 36.9116 64.0783C36.7024 62.2414 36.4933 60.4058 36.0222 58.6678L36.0155 58.6424C35.8498 57.943 35.6113 57.5569 35.3834 57.4307C35.3614 57.418 35.348 57.4113 35.348 57.4113C35.3447 57.4113 35.3447 57.4194 35.3306 57.4334C35.1803 57.5917 35.0928 57.947 35.1375 58.4948C35.8993 61.0404 35.8685 63.932 35.8398 66.8256C35.7857 72.1017 35.7329 77.378 40.8292 79.8088C40.9876 79.5089 41.168 79.2297 41.3691 78.9758C42.1756 77.9545 43.3023 77.3226 44.559 77.3226C45.8153 77.3226 46.9426 77.9545 47.7489 78.9758C47.9694 79.255 48.1659 79.565 48.3349 79.8996C49.4715 79.4033 50.4552 78.8062 51.2103 78.1087C51.8203 77.5456 52.2767 76.9184 52.534 76.2285C51.5731 75.4449 50.7332 74.481 49.9601 73.413L49.9576 73.4171ZM63.53 81.0091C64.3366 81.3297 65.1778 81.3317 65.8628 80.9356V80.9369L65.8641 80.9356C66.5477 80.5415 66.966 79.8134 67.0903 78.9551C67.2226 78.044 67.0294 76.9999 66.4802 76.0314C66.4722 76.02 66.4655 76.0093 66.4595 75.996C65.8929 75.0148 65.077 74.3107 64.215 73.9674C63.4085 73.6468 62.5672 73.6448 61.8823 74.0409V74.0396L61.881 74.0409C61.1974 74.435 60.7791 75.1631 60.6548 76.0214C60.596 76.4235 60.602 76.853 60.6722 77.2885C60.6755 77.3059 60.6789 77.3239 60.6815 77.3413L60.6829 77.3527C60.7771 77.8844 60.9702 78.4254 61.2642 78.9437C61.2722 78.9551 61.2789 78.9658 61.2849 78.9791C61.8515 79.9604 62.6674 80.6644 63.5294 81.0077L63.53 81.0091ZM34.5424 72.2661C34.3266 72.3857 34.1081 72.4973 33.8876 72.6028C33.5188 72.7765 33.1439 72.9314 32.7637 73.067V73.0657C32.7176 73.0817 32.6682 73.0944 32.6187 73.1011C32.3554 73.1378 30.6329 72.2374 29.0024 71.2976C27.8704 70.645 26.7319 69.9423 26.1098 69.4908C25.9053 69.4347 25.7282 69.2911 25.6374 69.084C25.634 69.0774 25.6307 69.0713 25.628 69.0667H25.6293L25.6247 69.0553C25.6039 69.0025 25.5892 68.9498 25.5812 68.897H25.5826C24.8322 64.7443 26.373 61.2028 27.9153 57.6599C28.651 55.9713 29.386 54.2813 29.8457 52.556C29.849 52.5399 29.8537 52.5226 29.8584 52.5065C30.0662 51.8152 30.0515 51.3603 29.9158 51.1385C29.9011 51.1165 29.8965 51.1051 29.8965 51.1051C29.8951 51.1051 29.8884 51.1085 29.8677 51.1145C29.6586 51.1766 29.406 51.4398 29.1701 51.9368C28.5554 54.5252 27.0834 57.0152 25.6101 59.5048C22.9246 64.0456 20.2411 68.5877 23.4404 73.2414C23.7264 73.061 24.023 72.9094 24.3231 72.7898C25.5298 72.3096 26.8214 72.3256 27.9086 72.9528C28.9978 73.5814 29.6567 74.6908 29.8436 75.9774C29.8944 76.3288 29.9091 76.6941 29.8884 77.0675C31.1259 77.2078 32.2766 77.1824 33.2748 76.956C34.086 76.7723 34.795 76.4563 35.363 75.9888C34.9226 74.8299 34.6767 73.5741 34.5404 72.2636L34.5424 72.2661ZM42.5027 85.6274C43.0392 86.3074 43.7669 86.7268 44.5574 86.7268C45.3492 86.7268 46.0756 86.3074 46.6122 85.6274C47.1868 84.898 47.543 83.8813 47.543 82.7498C47.543 81.6183 47.1868 80.6004 46.6122 79.8723C46.0756 79.1923 45.3479 78.7728 44.5574 78.7728C43.7656 78.7728 43.0393 79.1943 42.5027 79.8723C41.928 80.6017 41.5719 81.6183 41.5719 82.7498C41.5719 83.8814 41.928 84.8993 42.5027 85.6274ZM21.7652 63.5653C21.518 63.5619 21.2734 63.5492 21.0322 63.5299C20.662 63.4998 20.2751 63.4484 19.8715 63.3749L19.8508 63.3716C19.8428 63.3702 19.8335 63.3682 19.8254 63.3669C19.7773 63.3589 19.7299 63.3448 19.6818 63.3255C19.4345 63.2246 18.3915 61.584 17.4513 59.9549H17.4527L17.4513 59.9536C16.7985 58.8234 16.1644 57.6472 15.8517 56.9464C15.8022 56.897 15.7588 56.8396 15.7254 56.7774C15.7187 56.7661 15.7127 56.7534 15.706 56.7407C15.6278 56.575 15.6131 56.3787 15.6806 56.1916C17.1019 52.2079 20.2164 49.9068 23.3315 47.6036C24.8163 46.5055 26.301 45.4073 27.5639 44.1402C27.5732 44.1289 27.5846 44.1195 27.594 44.1102C28.1178 43.6172 28.333 43.2151 28.327 42.9513C28.327 42.9292 28.3256 42.9159 28.3256 42.9159C28.3256 42.9159 28.3176 42.9145 28.3002 42.9092C28.0878 42.8584 27.7369 42.96 27.2846 43.2712C25.4563 45.2069 22.9352 46.6291 20.4128 48.0498L20.4115 48.0484C15.8163 50.6387 11.2217 53.2291 11.6641 58.8594C12.0028 58.8447 12.3329 58.8628 12.6523 58.9088C13.9373 59.0959 15.0471 59.7545 15.678 60.8445H15.6793C16.3081 61.9333 16.3241 63.2224 15.8424 64.4288C15.7101 64.7608 15.5403 65.0848 15.3345 65.3974C16.3355 66.1381 17.3445 66.6899 18.3214 66.9931C19.1145 67.2389 19.8876 67.3204 20.6139 67.2008C20.8117 65.9765 21.2273 64.7669 21.7652 63.5651L21.7652 63.5653ZM21.9777 79.1148C22.102 79.9718 22.5223 80.7012 23.2072 81.0953C23.8921 81.4914 24.7334 81.4894 25.5399 81.1687C26.4019 80.8254 27.2178 80.122 27.7844 79.1402C28.3497 78.1616 28.5488 77.1022 28.4165 76.1811C28.2922 75.3241 27.8719 74.5947 27.187 74.2006C26.5021 73.8045 25.6608 73.8065 24.8543 74.1271C24.4821 74.2754 24.1199 74.4911 23.7812 74.7657C23.7651 74.7817 23.7478 74.7957 23.7284 74.8118C23.7204 74.8185 23.7137 74.8231 23.7063 74.8291C23.2894 75.1832 22.9145 75.6287 22.6098 76.1557C22.0445 77.1343 21.8454 78.1936 21.9777 79.1148L21.9777 79.1148ZM15.0551 49.645C14.8493 49.5208 14.6435 49.3879 14.4391 49.2463C14.115 49.0212 13.8003 48.78 13.4969 48.5235L13.4956 48.5222C13.4495 48.4855 13.4094 48.4454 13.3726 48.3993L13.374 48.3979L13.3726 48.3966C13.2069 48.1829 13.1221 46.2405 13.1221 44.3621H13.1254C13.1254 43.0596 13.1655 41.727 13.2437 40.9608C13.1849 40.7484 13.2243 40.5106 13.3733 40.3242C13.41 40.2781 13.4501 40.238 13.4962 40.2013C16.7163 37.4754 20.5577 37.0399 24.3973 36.6037C26.2348 36.3946 28.0711 36.1855 29.8098 35.7146L29.8352 35.708C30.5347 35.5423 30.921 35.3038 31.0473 35.0761C31.06 35.054 31.0666 35.0407 31.0666 35.0407C31.0666 35.0373 31.0586 35.0373 31.0446 35.0233C30.8862 34.873 30.5307 34.7855 29.9828 34.8303C27.4363 35.5917 24.5437 35.561 21.649 35.5323C16.371 35.4782 11.0928 35.4254 8.66122 40.5199C8.96124 40.6782 9.24055 40.8586 9.49446 41.0597C10.5161 41.8659 11.1483 42.9921 11.1483 44.2484C11.1483 45.5042 10.5161 46.6311 9.49446 47.4372C9.21516 47.6576 8.90512 47.854 8.57036 48.023C9.06682 49.1592 9.66419 50.1425 10.3619 50.8973C10.9251 51.5071 11.5526 51.9634 12.2428 52.2205C13.0266 51.26 13.9909 50.4204 15.0593 49.6475L15.0551 49.645ZM7.46048 63.2127C7.13975 64.0189 7.13775 64.8599 7.53399 65.5446H7.53265L7.53399 65.5459C7.92822 66.2292 8.65656 66.6474 9.51519 66.7716C10.4266 66.9039 11.4711 66.7108 12.4399 66.1618C12.4513 66.1537 12.462 66.1471 12.4754 66.1411C13.4569 65.5746 14.1612 64.7591 14.5046 63.8974C14.8254 63.0912 14.8274 62.2502 14.4311 61.5655H14.4325L14.4311 61.5642C14.0369 60.8808 13.3086 60.4627 12.4499 60.3385C12.0477 60.2797 11.618 60.2857 11.1823 60.3558C11.165 60.3592 11.1469 60.3625 11.1296 60.3652L11.1182 60.3665C10.5863 60.4607 10.0451 60.6537 9.52655 60.9476C9.51519 60.9556 9.5045 60.9623 9.49114 60.9683C8.50955 61.5348 7.80527 62.3503 7.46187 63.212L7.46048 63.2127ZM16.2065 34.2354C16.0869 34.0197 15.9753 33.8012 15.8698 33.5808C15.696 33.2121 15.541 32.8374 15.4054 32.4573H15.4067C15.3907 32.4112 15.378 32.3618 15.3713 32.3124C15.3345 32.0492 16.2353 30.3272 17.1754 28.6973C17.8283 27.5658 18.5312 26.4276 18.9829 25.8057C19.039 25.6013 19.1826 25.4243 19.3898 25.3335C19.3965 25.3301 19.4025 25.3268 19.4072 25.3241V25.3255L19.4185 25.3208C19.4713 25.3001 19.5241 25.2854 19.5769 25.2774V25.2787C23.731 24.5286 27.2738 26.0689 30.818 27.6106C32.5072 28.346 34.1978 29.0808 35.9238 29.5403C35.9398 29.5436 35.9572 29.5483 35.9732 29.553C36.6648 29.7607 37.1198 29.746 37.3417 29.6104C37.3637 29.5957 37.3751 29.5911 37.3751 29.5911C37.3751 29.5897 37.3717 29.5831 37.3657 29.5624C37.3036 29.3533 37.0403 29.1008 36.5432 28.865C33.9539 28.2505 31.4629 26.779 28.9725 25.3062C24.43 22.6217 19.8863 19.9391 15.231 23.1373C15.4114 23.4232 15.5631 23.7197 15.6827 24.0197C16.1631 25.226 16.1471 26.5171 15.5196 27.6039C14.8909 28.6927 13.781 29.3514 12.494 29.5383C12.1425 29.589 11.777 29.6037 11.4035 29.583C11.2631 30.8201 11.2885 31.9703 11.515 32.9683C11.6988 33.7792 12.0149 34.4879 12.4826 35.0556C13.6419 34.6154 14.8981 34.3696 16.2091 34.2334L16.2065 34.2354ZM2.84053 42.1928C2.1603 42.7291 1.74068 43.4566 1.74068 44.2468C1.74068 45.0383 2.1603 45.7644 2.84053 46.3008C3.5702 46.8753 4.58721 47.2313 5.71911 47.2313C6.851 47.2313 7.86932 46.8753 8.59768 46.3008C9.27792 45.7645 9.69754 45.0371 9.69754 44.2468C9.69754 43.4553 9.27591 42.7292 8.59768 42.1928C7.86802 41.6183 6.851 41.2623 5.71911 41.2623C4.58721 41.2623 3.5689 41.6183 2.84053 42.1928ZM24.9105 21.4627C24.9139 21.2156 24.9266 20.9711 24.9459 20.73C24.976 20.3599 25.0275 19.9732 25.101 19.5697L25.1043 19.549C25.1056 19.541 25.1076 19.5317 25.109 19.5236C25.117 19.4755 25.131 19.4281 25.1504 19.38C25.2513 19.1329 26.8925 18.0902 28.5221 17.1504V17.1517L28.5235 17.1504C29.6541 16.4978 30.8307 15.8639 31.5317 15.5513C31.5812 15.5019 31.6386 15.4584 31.7008 15.425C31.7121 15.4184 31.7248 15.4123 31.7375 15.4057C31.9032 15.3275 32.0997 15.3128 32.2868 15.3803C36.2719 16.801 38.5739 19.9145 40.8778 23.0285C41.9764 24.5127 43.0749 25.9968 44.3425 27.2593C44.3538 27.2687 44.3632 27.28 44.3725 27.2894C44.8657 27.8131 45.2679 28.0281 45.5319 28.0221C45.5539 28.0221 45.5673 28.0208 45.5673 28.0208C45.5673 28.0208 45.5686 28.0128 45.5739 27.9954C45.6247 27.783 45.5232 27.4323 45.2118 26.9801C43.2754 25.1525 41.8527 22.6323 40.4315 20.1108L40.4329 20.1095C37.8417 15.516 35.2503 10.923 29.618 11.3652C29.6327 11.7038 29.6147 12.0338 29.5686 12.3531C29.3815 13.6376 28.7227 14.747 27.6322 15.3777V15.379C26.5431 16.0076 25.2535 16.0236 24.0467 15.542C23.7146 15.4097 23.3905 15.2401 23.0778 15.0343C22.3367 16.0349 21.7848 17.0436 21.4814 18.0201C21.2355 18.813 21.154 19.5858 21.2736 20.3118C22.4985 20.5095 23.7085 20.925 24.9107 21.4627L24.9105 21.4627ZM9.35547 21.6751C8.49818 21.7994 7.76851 22.2195 7.37427 22.9042C6.97803 23.5889 6.98003 24.4298 7.30077 25.2361C7.64422 26.0978 8.34784 26.9133 9.33004 27.4797C10.309 28.0448 11.3687 28.2439 12.2902 28.1116C13.1475 27.9874 13.8772 27.5672 14.2714 26.8826C14.6676 26.1979 14.6656 25.357 14.3449 24.5507C14.1966 24.1786 13.9807 23.8166 13.7061 23.478C13.6901 23.4619 13.676 23.4446 13.66 23.4252C13.6533 23.4172 13.6486 23.4105 13.6426 23.4031C13.2885 22.9863 12.8428 22.6116 12.3156 22.307C11.3367 21.7419 10.2769 21.5429 9.35542 21.6751L9.35547 21.6751ZM38.8357 14.755C38.96 14.5493 39.093 14.3436 39.2346 14.1392C39.4598 13.8152 39.701 13.5006 39.9576 13.1974L39.959 13.196C39.9957 13.1499 40.0358 13.1099 40.0819 13.0731L40.0832 13.0745L40.0846 13.0731C40.2984 12.9075 42.2415 12.8226 44.1205 12.8226V12.826C45.4235 12.826 46.7565 12.8661 47.5231 12.9442C47.7356 12.8854 47.9734 12.9248 48.1599 13.0738C48.206 13.1105 48.2461 13.1506 48.2828 13.1967C51.0097 16.4156 51.4453 20.2557 51.8817 24.0939C52.0909 25.9307 52.3 27.7664 52.7711 29.5044L52.7778 29.5298C52.9435 30.2291 53.182 30.6152 53.4099 30.7415C53.4319 30.7541 53.4453 30.7608 53.4453 30.7608C53.4486 30.7608 53.4486 30.7528 53.4627 30.7388C53.613 30.5805 53.7005 30.2251 53.6558 29.6774C52.894 27.1318 52.9248 24.2402 52.9535 21.3466C53.0076 16.0704 53.0604 10.7941 47.9641 8.3634C47.8057 8.66331 47.6253 8.94252 47.4242 9.19635C46.6176 10.2177 45.491 10.8496 44.2343 10.8496C42.978 10.8496 41.8507 10.2177 41.0444 9.19635C40.8238 8.91714 40.6274 8.60721 40.4583 8.27257C39.3217 8.76885 38.3381 9.36601 37.583 10.0634C36.973 10.6265 36.5166 11.2537 36.2593 11.9437C37.2202 12.7272 38.0601 13.6911 38.8332 14.7592L38.8357 14.755ZM25.2632 7.16309C24.4567 6.84247 23.6155 6.84047 22.9305 7.23657V7.23523L22.9292 7.23657C22.2456 7.63067 21.8273 8.35874 21.703 9.21706C21.5707 10.1282 21.7638 11.1722 22.3131 12.1408C22.3211 12.1521 22.3278 12.1628 22.3338 12.1762C22.9004 13.1574 23.7163 13.8615 24.5783 14.2047C25.3848 14.5253 26.226 14.5273 26.911 14.1313V14.1326L26.9123 14.1313C27.5959 13.7372 28.0142 13.0091 28.1385 12.1508C28.1973 11.7486 28.1913 11.3191 28.1211 10.8836C28.1178 10.8663 28.1144 10.8482 28.1117 10.8309L28.1104 10.8195C28.0162 10.2878 27.8231 9.74677 27.5291 9.22843C27.5211 9.21707 27.5144 9.20638 27.5084 9.19302C26.9417 8.21179 26.1259 7.50776 25.2639 7.16448L25.2632 7.16309ZM46.2915 2.54616C45.7549 1.86617 45.0273 1.44669 44.2367 1.44669C43.4449 1.44669 42.7186 1.86617 42.182 2.54616C41.6073 3.27556 41.2512 4.29221 41.2512 5.4237C41.2512 6.55519 41.6073 7.57314 42.182 8.30125C42.7185 8.98124 43.4462 9.40072 44.2367 9.40072C45.0285 9.40072 45.7549 8.98124 46.2915 8.30125C46.8661 7.57185 47.2223 6.55519 47.2223 5.4237C47.2223 4.29221 46.8661 3.27426 46.2915 2.54616Z" fill="white"/>
</svg>
