<svg width="89" height="89" viewBox="0 0 89 89" fill="none" xmlns="http://www.w3.org/2000/svg">
<path d="M44.2362 0C45.4924 0 46.6198 0.631887 47.4261 1.65321C48.1926 2.62509 48.6683 3.95962 48.6683 5.42319C48.6683 5.9736 48.6015 6.50528 48.4765 7.00825C50.5667 7.96745 51.9251 9.28731 52.8064 10.8451C53.4946 10.3521 54.3038 10.0135 55.2026 9.80909C56.3919 9.54124 57.7376 9.51251 59.1636 9.68151C59.3059 9.21729 59.5037 8.75572 59.7623 8.30886C60.4933 7.04174 61.5731 6.12403 62.7237 5.66575C63.9304 5.18549 65.222 5.20153 66.3092 5.82873C67.3984 6.45729 68.0573 7.56675 68.2442 8.85334C68.4213 10.0777 68.1647 11.4677 67.4317 12.7382C67.1571 13.2138 66.833 13.64 66.4755 14.012C67.8073 15.887 68.3224 17.7112 68.3084 19.5007C69.1497 19.4192 70.0183 19.5294 70.8964 19.8026C72.0637 20.1647 73.2431 20.8126 74.393 21.673C74.7471 21.3424 75.15 21.0411 75.595 20.7839C75.6097 20.7759 75.6238 20.7679 75.6385 20.7599C76.8967 20.0452 78.2712 19.796 79.4813 19.9717C80.7663 20.1587 81.8761 20.8173 82.507 21.9074H82.5083C83.1371 22.9962 83.1531 24.2853 82.6714 25.4917C82.2117 26.6426 81.2935 27.7213 80.0273 28.452C80.0126 28.46 79.9986 28.468 79.9839 28.476C79.5208 28.7392 79.0417 28.9389 78.5613 29.0779C78.7771 31.3663 78.3107 33.2052 77.402 34.7468C78.1731 35.0961 78.8707 35.6278 79.4968 36.3045C80.3207 37.1949 81.0169 38.3458 81.5849 39.669C82.0593 39.5588 82.5584 39.5 83.0743 39.5C84.5383 39.5 85.8733 39.9743 86.8456 40.7418C87.8673 41.548 88.4994 42.6742 88.4994 43.9305C88.4994 45.1863 87.8673 46.3132 86.8456 47.1193C85.8734 47.8854 84.5384 48.361 83.0743 48.361C82.5237 48.361 81.9918 48.2942 81.4887 48.1693C80.5291 50.2587 79.2088 51.6166 77.6504 52.4976C78.1436 53.1856 78.4824 53.9945 78.6868 54.8929C78.9548 56.0819 78.9835 57.4271 78.8144 58.8526C79.2788 58.9948 79.7406 59.1926 80.1876 59.4511C81.4552 60.1818 82.3732 61.2612 82.8316 62.4114C83.3121 63.6177 83.296 64.9088 82.6686 65.9956C82.0398 67.0844 80.93 67.7431 79.6429 67.93C78.4181 68.107 77.0276 67.8505 75.7566 67.1177C75.2809 66.8432 74.8546 66.5192 74.4824 66.1619C72.6067 67.4931 70.7819 68.0081 68.9917 67.9941C69.0733 68.8351 68.963 69.7034 68.6897 70.5812C68.3276 71.7481 67.6794 72.9271 66.8187 74.0765C67.1494 74.4305 67.4508 74.8333 67.7081 75.2782C67.7161 75.2929 67.7241 75.3069 67.7321 75.3216C68.4471 76.5794 68.6963 77.9534 68.5206 79.163C68.3335 80.4475 67.6746 81.557 66.5842 82.1877V82.189C65.495 82.8175 64.2055 82.8336 62.9986 82.352C61.8473 81.8924 60.7682 80.9746 60.0373 79.7089C60.0293 79.6942 60.0212 79.6801 60.0132 79.6654C59.7499 79.2026 59.5502 78.7236 59.4112 78.2434C57.1219 78.4591 55.2823 77.9929 53.7402 77.0845C53.3908 77.8553 52.8589 78.5526 52.182 79.1785C51.2913 80.0021 50.1399 80.6981 48.8162 81.2659C48.9265 81.7401 48.9853 82.2391 48.9853 82.7547C48.9853 84.2182 48.5109 85.5528 47.7431 86.5247C46.9366 87.546 45.81 88.1779 44.5532 88.1779C43.297 88.1779 42.1697 87.546 41.3633 86.5247C40.5969 85.5528 40.1212 84.2183 40.1212 82.7547C40.1212 82.2043 40.188 81.6727 40.3129 81.1697C38.2228 80.2105 36.8644 78.8906 35.9831 77.3328C35.2948 77.8258 34.4857 78.1644 33.5869 78.3688C32.3975 78.6367 31.0518 78.6654 29.6259 78.4964C29.4835 78.9606 29.2857 79.4222 29.0272 79.8691C28.2962 81.1362 27.2163 82.0539 26.0658 82.5122C24.859 82.9924 23.5675 82.9764 22.4802 82.3492C21.3911 81.7206 20.7322 80.6112 20.5452 79.3246C20.3681 78.1002 20.6247 76.7102 21.3577 75.4397C21.6324 74.9641 21.9564 74.538 22.3139 74.1659C20.9822 72.2909 20.467 70.4667 20.481 68.6772C19.6398 68.7587 18.7711 68.6485 17.8931 68.3753C16.7257 68.0133 15.5463 67.3654 14.3965 66.5049C14.0423 66.8369 13.6394 67.1368 13.1944 67.394C13.1797 67.402 13.1657 67.41 13.151 67.418C11.8927 68.1327 10.5182 68.3819 9.30813 68.2062C8.02319 68.0192 6.91331 67.3606 6.28245 66.2705H6.28111C5.65234 65.1818 5.63631 63.8926 6.11807 62.6862C6.57779 61.5353 7.4959 60.4566 8.76213 59.7259C8.77683 59.7179 8.79086 59.7099 8.80556 59.7019C9.26862 59.4387 9.74772 59.239 10.2282 59.1001C10.0123 56.8116 10.4787 54.9727 11.3875 53.4311C10.6164 53.0818 9.91878 52.5501 9.29268 51.8735C8.4688 50.9831 7.77254 49.8321 7.20457 48.5089C6.73016 48.6191 6.23101 48.6779 5.71516 48.6779C4.25114 48.6779 2.91613 48.2037 1.94383 47.4362C0.922152 46.63 0.290039 45.5037 0.290039 44.2474C0.290039 42.9916 0.922152 41.8647 1.94383 41.0586C2.91606 40.2925 4.25107 39.8169 5.71516 39.8169C6.26577 39.8169 6.79764 39.8837 7.30079 40.0086C8.26033 37.9192 9.58066 36.5613 11.139 35.6803C10.6459 34.9923 10.3071 34.1834 10.1026 33.285C9.83468 32.096 9.80594 30.7508 9.975 29.3254C9.51061 29.1831 9.04887 28.9854 8.60186 28.7269C7.33429 27.9961 6.41625 26.9167 5.95781 25.7666C5.47738 24.5602 5.49342 23.2691 6.12085 22.1823C6.74963 21.0935 7.85949 20.4349 9.14654 20.248C10.3714 20.0709 11.7619 20.3274 13.0328 21.0602C13.5086 21.3347 13.9349 21.6587 14.3071 22.016C16.1827 20.6848 18.0076 20.1698 19.7977 20.1838C19.7162 19.3428 19.8264 18.4745 20.0997 17.5968C20.4619 16.4299 21.11 15.2509 21.9708 14.1014C21.6387 13.7474 21.3387 13.3446 21.0814 12.8998C21.0734 12.8851 21.0654 12.871 21.0573 12.8563C20.3424 11.5986 20.0931 10.2245 20.2689 9.01488C20.456 7.7304 21.1148 6.62091 22.2052 5.99028V5.98894C23.2944 5.36039 24.584 5.34436 25.7908 5.82596C26.9421 6.28551 28.0212 7.20329 28.7522 8.46907C28.7602 8.48376 28.7682 8.49779 28.7762 8.51249C29.0395 8.97538 29.2393 9.45431 29.3783 9.93457C31.6676 9.71882 33.5071 10.1851 35.0492 11.0935C35.3987 10.3227 35.9306 9.62531 36.6075 8.99944C37.4982 8.17584 38.6496 7.47983 39.9732 6.91207C39.8629 6.43782 39.8041 5.93885 39.8041 5.42319C39.8041 3.95969 40.2786 2.62516 41.0463 1.65321C41.8528 0.631889 42.9795 1.63076e-06 44.2362 1.63076e-06V0ZM53.4293 12.1802C53.8696 13.3391 54.1155 14.5948 54.2518 15.9053C54.4676 15.7858 54.6861 15.6742 54.9066 15.5687C55.2755 15.395 55.6504 15.24 56.0305 15.1045V15.1058C56.0767 15.0898 56.1261 15.0771 56.1755 15.0704C56.4388 15.0337 58.1614 15.9341 59.7919 16.8739C60.9238 17.5265 62.0624 18.2292 62.6845 18.6807C62.889 18.7368 63.066 18.8804 63.1569 19.0875C63.1602 19.0941 63.1636 19.1001 63.1663 19.1048H63.1649L63.1696 19.1162C63.1903 19.1689 63.205 19.2217 63.213 19.2745H63.2117C63.9621 23.4272 62.4212 26.9687 60.879 30.5116C60.1433 32.2002 59.4083 33.8902 58.9486 35.6155C58.9452 35.6316 58.9406 35.6489 58.9359 35.665C58.7281 36.3563 58.7428 36.8112 58.8784 37.0329C58.8931 37.055 58.8978 37.0663 58.8978 37.0663C58.8991 37.0663 58.9058 37.063 58.9265 37.057C59.1357 36.9949 59.3882 36.7317 59.6241 36.2347C60.2389 33.6463 61.7109 31.1563 63.1842 28.6667C65.8696 24.1259 68.5532 19.5838 65.3539 14.9301C65.0679 15.1105 64.7712 15.2621 64.4712 15.3817C63.2644 15.8619 61.9729 15.8459 60.8856 15.2187C59.7965 14.5901 59.1376 13.4807 58.9506 12.1941C58.8998 11.8427 58.8851 11.4774 58.9059 11.104C57.6684 10.9637 56.5177 10.9891 55.5194 11.2155C54.7082 11.3992 53.9993 11.7152 53.4313 12.1827L53.4293 12.1802ZM54.3614 17.4551C54.4189 18.7316 54.4062 20.0435 54.3915 21.3559C54.3627 24.168 54.334 26.9788 55.0543 29.3326C55.069 29.3787 55.0784 29.4268 55.0817 29.4729C55.1826 30.5115 54.922 31.289 54.5037 31.7299C54.2672 31.979 53.9785 32.132 53.6604 32.1814C53.3457 32.2295 53.0236 32.1734 52.7156 32.0044C52.165 31.7025 51.6425 31.0071 51.3712 29.8816C50.8747 28.0528 50.6589 26.1518 50.4417 24.2507C50.0348 20.6631 49.6259 17.0754 47.2378 14.1993C47.0253 14.1785 45.6415 14.2634 44.1146 14.2634V14.2667C42.5851 14.2667 41.2027 14.1772 40.9914 14.1999C40.7823 14.4524 40.5892 14.7042 40.4134 14.9567C40.217 15.2393 40.0353 15.5345 39.8689 15.8391C39.8241 15.9186 39.768 15.9874 39.7011 16.0435C40.3894 17.1209 41.0342 18.2637 41.6789 19.406V19.4073L41.6803 19.406C43.0614 21.854 44.4425 24.3022 46.24 25.9781C46.2848 26.0195 46.3215 26.0643 46.3536 26.1137C46.9443 26.9533 47.104 27.7449 46.9637 28.3307C46.8821 28.6694 46.7097 28.9466 46.4605 29.1463C46.2133 29.344 45.9052 29.4562 45.5504 29.4636C44.9216 29.4783 44.1165 29.1316 43.314 28.2793C41.9716 26.9433 40.8424 25.4164 39.7124 23.8874C37.5647 20.9843 35.4159 18.0815 31.9085 16.7836C31.7141 16.8731 30.5547 17.6359 29.2357 18.3974V18.3987C27.906 19.1662 26.6572 19.7901 26.496 19.907C26.4432 20.2149 26.4032 20.5275 26.3778 20.8488C26.3477 21.2128 26.3363 21.5575 26.3443 21.8848C26.3457 21.9743 26.3317 22.0618 26.3029 22.142C27.4382 22.7311 28.5681 23.3977 29.6988 24.065C32.1189 25.4951 34.5413 26.9253 36.9361 27.479C36.9842 27.4903 37.029 27.5044 37.0717 27.5237C38.0233 27.9566 38.5692 28.5704 38.7416 29.1549C38.8391 29.4855 38.8278 29.8108 38.7115 30.1074C38.5966 30.404 38.3861 30.6565 38.0854 30.8381C37.5455 31.1668 36.6742 31.269 35.5536 30.9323L35.5455 30.929C33.7173 30.442 31.9774 29.6859 30.2354 28.9278C26.9225 27.4863 23.6096 26.0456 19.9263 26.6741C19.8081 26.835 19.1826 28.0834 18.4175 29.4093C17.6545 30.7292 16.8914 31.8909 16.8018 32.0846C16.9154 32.3945 17.0384 32.6864 17.1693 32.9623C17.3224 33.2876 17.4854 33.5928 17.6578 33.8754C17.7039 33.9535 17.736 34.0364 17.7507 34.1199C19.0276 34.0624 20.34 34.0751 21.6529 34.0898C24.4659 34.1185 27.2778 34.1472 29.6324 33.4272C29.6785 33.4125 29.7266 33.4031 29.7727 33.3998C30.8118 33.2989 31.5896 33.5594 32.0305 33.9776C32.2798 34.214 32.4328 34.5026 32.4822 34.8205C32.5304 35.1351 32.4742 35.4571 32.3052 35.765C32.0031 36.3154 31.3075 36.8378 30.1816 37.109C28.3522 37.6053 26.4505 37.821 24.5487 38.0381C20.9599 38.4449 17.3709 38.8537 14.4937 41.2409C14.473 41.4533 14.5578 42.8366 14.5578 44.363H14.5612C14.5612 45.8919 14.4736 47.2739 14.4944 47.485C14.7469 47.6941 14.9988 47.8872 15.2514 48.0628C15.5341 48.2592 15.8294 48.4409 16.1341 48.6072C16.2136 48.652 16.2825 48.7081 16.3386 48.7749C17.4164 48.0869 18.5596 47.4423 19.7023 46.7978H19.7036L19.7023 46.7965C22.1512 45.4158 24.6002 44.0352 26.2768 42.2383C26.3182 42.1936 26.3629 42.1569 26.4124 42.1248C27.2523 41.5343 28.0441 41.3747 28.6302 41.5149C28.969 41.5964 29.2463 41.7688 29.446 42.0179C29.6438 42.2651 29.7561 42.573 29.7634 42.9277C29.7781 43.5562 29.4313 44.3611 28.5787 45.1633C27.2423 46.5052 25.7149 47.6341 24.1852 48.7637C21.2812 50.9105 18.3773 53.0586 17.079 56.5647C17.1685 56.7591 17.9316 57.918 18.6933 59.2366H18.6947C19.4624 60.5658 20.0865 61.8142 20.2034 61.9753C20.5115 62.028 20.8242 62.0681 21.1456 62.0935C21.5098 62.1236 21.8546 62.1349 22.182 62.1269C22.2715 62.1256 22.3591 62.1396 22.4392 62.1683C23.0286 61.0335 23.6955 59.904 24.363 58.7737C25.7936 56.3544 27.2243 53.9329 27.7781 51.5389C27.7895 51.4908 27.8035 51.4461 27.8229 51.4033C28.2559 50.4522 28.87 49.9064 29.4547 49.7341C29.7854 49.6366 30.1108 49.6479 30.4075 49.7642C30.7042 49.8791 30.9568 50.0895 31.1385 50.3901C31.4673 50.9298 31.5695 51.8008 31.2327 52.921L31.2294 52.929C30.7423 54.7566 29.9859 56.4959 29.2275 58.2373C27.7855 61.549 26.3443 64.8607 26.9729 68.5426C27.134 68.6609 28.3828 69.2861 29.7092 70.0509C31.0296 70.8137 32.1916 71.5765 32.3854 71.666C32.6954 71.5525 32.9874 71.4296 33.2634 71.2986C33.5888 71.1457 33.8942 70.9827 34.1768 70.8103C34.255 70.7643 34.3379 70.7322 34.4214 70.7175C34.3639 69.441 34.3766 68.1291 34.3913 66.8167C34.4201 64.0047 34.4488 61.1938 33.7285 58.84C33.7138 58.7939 33.7044 58.7458 33.7011 58.6997C33.6002 57.6611 33.8608 56.8836 34.2791 56.4427C34.5156 56.1936 34.8043 56.0406 35.1223 55.9912C35.437 55.9431 35.7591 55.9992 36.0672 56.1682C36.6178 56.4701 37.1403 57.1655 37.4116 58.291C37.908 60.1198 38.1239 62.0208 38.341 63.9219C38.748 67.5095 39.1569 71.0972 41.545 73.9734C41.7575 73.9941 43.1413 73.9092 44.6682 73.9092V73.9059C46.1977 73.9059 47.5801 73.9934 47.7913 73.9727C48.0005 73.7202 48.1936 73.4684 48.3693 73.2159C48.5658 72.9333 48.7475 72.6381 48.9139 72.3335C49.0736 72.0429 49.0322 72.0523 48.8083 71.6969C48.1796 70.6943 47.6971 69.8219 47.1031 68.7665V68.7652L47.1018 68.7665C45.7206 66.3185 44.3395 63.8704 42.542 62.1944C42.4972 62.153 42.4605 62.1082 42.4284 62.0588C41.8377 61.2192 41.678 60.4277 41.8184 59.8418C41.8999 59.5032 42.0723 59.226 42.3215 59.0263C42.5687 58.8286 42.8768 58.7163 43.2316 58.709C43.8604 58.6943 44.6655 59.041 45.468 59.8933C46.8104 61.2292 47.9396 62.7561 49.0697 64.2852C51.2173 67.1882 53.3661 70.0911 56.8735 71.3889C57.068 71.2994 58.2273 70.5366 59.5463 69.7751V69.7738C60.876 69.0063 62.1248 68.3824 62.286 68.2655C62.3388 67.9576 62.3789 67.645 62.4043 67.3237C62.4343 66.9597 62.4457 66.615 62.4377 66.2877C62.4363 66.1982 62.4504 66.1107 62.4791 66.0306C61.3438 65.4414 60.2139 64.7748 59.0832 64.1075C56.6631 62.6774 54.2407 61.2472 51.8459 60.6936C51.7978 60.6822 51.753 60.6682 51.7103 60.6488C50.7588 60.216 50.2128 59.6021 50.0405 59.0176C49.9429 58.687 49.9543 58.3617 50.0705 58.0651C50.1855 57.7686 50.3959 57.5161 50.6966 57.3344C51.2365 57.0057 52.1079 56.9036 53.2285 57.2402L53.2365 57.2435C55.0648 57.7305 56.8046 58.4866 58.5467 59.2447C61.8596 60.6862 65.1724 62.1269 68.8557 61.4985C68.974 61.3375 69.5994 60.0891 70.3645 58.7632C71.1275 57.4433 71.8906 56.2817 71.9802 56.0879C71.8666 55.778 71.7436 55.4861 71.6127 55.2102C71.4596 54.885 71.2966 54.5797 71.1242 54.2972C71.0781 54.219 71.046 54.1362 71.0313 54.0527C69.7544 54.1101 68.442 54.0974 67.1291 54.0827C64.3161 54.054 61.5042 54.0253 59.1496 54.7453C59.1035 54.76 59.0554 54.7694 59.0093 54.7727C57.9702 54.8736 57.1925 54.6131 56.7515 54.195C56.5022 53.9585 56.3492 53.6699 56.2998 53.352C56.2517 53.0374 56.3078 52.7154 56.4769 52.4075C56.7789 51.8571 57.4745 51.3348 58.6004 51.0636C60.4299 50.5673 62.3315 50.3515 64.2333 50.1344C67.8222 49.7276 71.4111 49.3189 74.2883 46.9316C74.3091 46.7192 74.2242 45.3359 74.2242 43.8096H74.2208C74.2208 42.2806 74.3104 40.8987 74.2877 40.6875C74.0351 40.4784 73.7832 40.2854 73.5306 40.1097C73.2479 39.9133 72.9526 39.7316 72.6479 39.5653C72.5684 39.5206 72.4996 39.4645 72.4434 39.3977C71.3656 40.0857 70.2224 40.7302 69.0797 41.3747H69.0784L69.0797 41.3761C66.6309 42.7567 64.1818 44.1373 62.5053 45.9342C62.4638 45.9789 62.4191 46.0157 62.3696 46.0477C61.5297 46.6382 60.7379 46.7979 60.1518 46.6576C59.8131 46.5761 59.5358 46.4038 59.336 46.1546C59.1382 45.9075 59.0259 45.5995 59.0186 45.2449C59.0039 44.6163 59.3507 43.8114 60.2033 43.0092C61.5397 41.6673 63.0672 40.5385 64.5968 39.4089C67.5008 37.262 70.4047 35.1139 71.7031 31.6078C71.6135 31.4134 70.8504 30.2545 70.0887 28.936H70.0874C69.3196 27.6067 68.6955 26.3583 68.5786 26.1973C68.2705 26.1445 67.9578 26.1044 67.6364 26.079C67.2722 26.049 66.9275 26.0376 66.6 26.0456C66.5105 26.047 66.423 26.0329 66.3428 26.0042C65.7534 27.1391 65.0866 28.2686 64.4191 29.3989C62.9884 31.8181 61.5578 34.2396 61.0039 36.6336C60.9925 36.6817 60.9785 36.7264 60.9591 36.7692C60.5261 37.7204 59.912 38.2661 59.3274 38.4384C58.9966 38.5359 58.6712 38.5246 58.3745 38.4084C58.0778 38.2935 57.8253 38.0831 57.6435 37.7825C57.3148 37.2428 57.2125 36.3717 57.5493 35.2515L57.5526 35.2435C58.0398 33.4159 58.7961 31.6767 59.5545 29.9352C60.9965 26.6235 62.4377 23.3118 61.8091 19.6299C61.648 19.5117 60.3992 18.8865 59.0728 18.1217C57.7525 17.3588 56.5904 16.596 56.3966 16.5065C56.0866 16.6201 55.7946 16.743 55.5186 16.8739C55.1932 17.0269 54.8878 17.1898 54.6052 17.3622C54.527 17.4083 54.4442 17.4403 54.3606 17.455L54.3614 17.4551ZM67.0271 24.6069C67.2743 24.6102 67.5189 24.6229 67.7601 24.6423C68.1303 24.6724 68.5172 24.7238 68.9208 24.7973L68.9415 24.8006C68.9495 24.8019 68.9589 24.804 68.9669 24.8053C69.015 24.8133 69.0624 24.8273 69.1105 24.8467C69.3578 24.9476 70.4008 26.5881 71.341 28.2172H71.3396L71.341 28.2186C71.9938 29.3488 72.6279 30.525 72.9406 31.2257C72.9901 31.2752 73.0335 31.3326 73.0669 31.3947C73.0736 31.4061 73.0796 31.4188 73.0863 31.4315C73.1645 31.5971 73.1792 31.7935 73.1117 31.9805C71.6904 35.9643 68.5759 38.2654 65.4608 40.5685C63.976 41.6667 62.4914 42.7648 61.2284 44.0319C61.2191 44.0433 61.2077 44.0526 61.1984 44.062C60.6745 44.5549 60.4593 44.9571 60.4653 45.2209C60.4653 45.2429 60.4667 45.2563 60.4667 45.2563C60.4667 45.2563 60.4747 45.2576 60.4921 45.263C60.7046 45.3137 61.0554 45.2122 61.5077 44.9009C63.336 42.9652 65.8571 41.543 68.3795 40.1224L68.3808 40.1237C72.976 37.5335 77.5706 34.943 77.1283 29.3127C76.7895 29.3274 76.4594 29.3094 76.14 29.2633C74.8551 29.0763 73.7452 28.4177 73.1143 27.3276H73.113C72.4842 26.2389 72.4682 24.9497 72.9499 23.7433C73.0822 23.4114 73.252 23.0874 73.4578 22.7748C72.4568 22.034 71.4478 21.4823 70.4709 21.1791C69.6778 20.9332 68.9047 20.8517 68.1784 20.9713C67.9806 22.1957 67.565 23.4053 67.0271 24.6071L67.0271 24.6069ZM66.8146 9.0574C66.6903 8.20041 66.27 7.47101 65.5851 7.07691C64.9002 6.68081 64.0589 6.68281 63.2524 7.00343C62.3904 7.34676 61.5745 8.05013 61.0079 9.03198C60.4426 10.0105 60.2435 11.0699 60.3758 11.9911C60.5001 12.8481 60.9204 13.5775 61.6053 13.9716C62.2902 14.3677 63.1315 14.3657 63.938 14.0451C64.3102 13.8968 64.6724 13.681 65.0111 13.4065C65.0272 13.3905 65.0445 13.3764 65.0639 13.3604C65.0719 13.3537 65.0786 13.349 65.086 13.343C65.5029 12.989 65.8778 12.5435 66.1825 12.0165C66.7478 11.0379 66.9469 9.97852 66.8146 9.05735L66.8146 9.0574ZM73.7372 38.5271C73.943 38.6514 74.1488 38.7843 74.3533 38.9259C74.6773 39.151 74.9921 39.3921 75.2954 39.6486L75.2967 39.65C75.3428 39.6867 75.3829 39.7268 75.4197 39.7729L75.4184 39.7742L75.4197 39.7756C75.5854 39.9893 75.6703 41.9317 75.6703 43.8101H75.6669C75.6669 45.1126 75.6268 46.4452 75.5487 47.2114C75.6075 47.4238 75.568 47.6616 75.419 47.848C75.3823 47.8941 75.3422 47.9341 75.2961 47.9709C72.0761 50.6967 68.2346 51.1323 64.395 51.5685C62.5575 51.7776 60.7212 51.9866 58.9826 52.4575L58.9572 52.4642C58.2576 52.6299 57.8713 52.8683 57.7451 53.0961C57.7324 53.1181 57.7257 53.1315 57.7257 53.1315C57.7257 53.1348 57.7337 53.1348 57.7477 53.1489C57.9061 53.2992 58.2616 53.3867 58.8095 53.3419C61.356 52.5804 64.2486 52.6112 67.1433 52.6399C72.4213 52.694 77.6995 52.7468 80.1311 47.6522C79.8311 47.4939 79.5518 47.3136 79.2978 47.1125C78.2762 46.3063 77.644 45.1801 77.644 43.9238C77.644 42.668 78.2762 41.5411 79.2978 40.735C79.5771 40.5146 79.8872 40.3182 80.222 40.1492C79.7255 39.013 79.1281 38.0297 78.4305 37.2749C77.8672 36.665 77.2397 36.2088 76.5495 35.9517C75.7657 36.9122 74.8015 37.7517 73.733 38.5247L73.7372 38.5271ZM81.3318 24.9595C81.6526 24.1533 81.6546 23.3123 81.2583 22.6276H81.2597L81.2583 22.6263C80.8641 21.9429 80.1357 21.5248 79.2771 21.4006C78.3657 21.2683 77.3212 21.4613 76.3524 22.0104C76.341 22.0184 76.3303 22.0251 76.317 22.0311C75.3354 22.5975 74.6311 23.4131 74.2877 24.2748C73.9669 25.081 73.9649 25.922 74.3612 26.6067H74.3598L74.3612 26.608C74.7554 27.2913 75.4838 27.7095 76.3424 27.8337C76.7446 27.8925 77.1743 27.8865 77.61 27.8163C77.6273 27.813 77.6454 27.8097 77.6627 27.807L77.6741 27.8057C78.206 27.7115 78.7472 27.5184 79.2658 27.2245C79.2771 27.2165 79.2878 27.2098 79.3012 27.2038C80.2828 26.6374 80.987 25.8218 81.3304 24.9602L81.3318 24.9595ZM72.5858 53.9368C72.7054 54.1525 72.817 54.3709 72.9226 54.5914C73.0963 54.9601 73.2513 55.3348 73.3869 55.7149H73.3856C73.4016 55.761 73.4143 55.8104 73.421 55.8598C73.4578 56.123 72.557 57.8449 71.6169 59.4749C70.964 60.6064 70.2611 61.7445 69.8095 62.3664C69.7533 62.5708 69.6097 62.7479 69.4025 62.8387C69.3958 62.842 69.3898 62.8454 69.3852 62.848V62.8467L69.3738 62.8514C69.321 62.8721 69.2682 62.8868 69.2154 62.8948V62.8935C65.0613 63.6436 61.5185 62.1033 57.9743 60.5616C56.2851 59.8261 54.5945 59.0914 52.8686 58.6319C52.8525 58.6285 52.8351 58.6238 52.8191 58.6192C52.1275 58.4114 51.6725 58.4261 51.4506 58.5617C51.4286 58.5764 51.4172 58.5811 51.4172 58.5811C51.4172 58.5824 51.4206 58.5891 51.4266 58.6098C51.4887 58.8189 51.752 59.0714 52.2491 59.3072C54.8385 59.9217 57.3294 61.3932 59.8199 62.866C64.3623 65.5505 68.906 68.2331 73.5613 65.0349C73.3809 64.749 73.2292 64.4524 73.1096 64.1525C72.6292 62.9462 72.6452 61.6551 73.2727 60.5682C73.9015 59.4795 75.0113 58.8208 76.2984 58.6339C76.6498 58.5831 77.0153 58.5684 77.3889 58.5892C77.5292 57.3521 77.5038 56.2019 77.2773 55.2039C77.0935 54.393 76.7775 53.6843 76.3097 53.1165C75.1504 53.5567 73.8942 53.8025 72.5832 53.9388L72.5858 53.9368ZM85.9518 45.9794C86.632 45.443 87.0516 44.7156 87.0516 43.9254C87.0516 43.1338 86.632 42.4078 85.9518 41.8713C85.2221 41.2969 84.2051 40.9409 83.0732 40.9409C81.9413 40.9409 80.923 41.2969 80.1946 41.8713C79.5144 42.4077 79.0948 43.1351 79.0948 43.9254C79.0948 44.7169 79.5144 45.443 80.1946 45.9794C80.9243 46.5538 81.9413 46.9099 83.0732 46.9099C84.2051 46.9099 85.2234 46.5538 85.9518 45.9794ZM63.8818 66.7094C63.8785 66.9566 63.8658 67.201 63.8464 67.4422C63.8163 67.8122 63.7649 68.199 63.6914 68.6024L63.688 68.6231C63.6867 68.6312 63.6847 68.6405 63.6833 68.6485C63.6753 68.6966 63.6613 68.744 63.6419 68.7921C63.541 69.0393 61.8998 70.082 60.2702 71.0218V71.0204L60.2688 71.0218C59.1382 71.6744 57.9616 72.3083 57.2606 72.6209C57.2112 72.6703 57.1537 72.7137 57.0915 72.7471C57.0802 72.7538 57.0675 72.7598 57.0548 72.7665C56.8891 72.8447 56.6926 72.8594 56.5055 72.7919C52.5204 71.3711 50.2185 68.2577 47.9145 65.1437C46.8159 63.6595 45.7174 62.1753 44.4498 60.9128C44.4385 60.9035 44.4291 60.8921 44.4198 60.8828C43.9266 60.3591 43.5244 60.144 43.2605 60.15C43.2384 60.15 43.225 60.1514 43.225 60.1514C43.225 60.1514 43.2237 60.1594 43.2184 60.1768C43.1676 60.3892 43.2691 60.7398 43.5805 61.192C45.5169 63.0197 46.9396 65.5398 48.3608 68.0614L48.3594 68.0627C50.9506 72.6562 53.542 77.2492 59.1743 76.807C59.1596 76.4683 59.1776 76.1384 59.2237 75.8191C59.4108 74.5346 60.0697 73.4251 61.1601 72.7945V72.7932C62.2493 72.1646 63.5388 72.1486 64.7457 72.6302C65.0778 72.7624 65.4018 72.9321 65.7145 73.1378C66.4556 72.1372 67.0075 71.1286 67.3109 70.152C67.5568 69.3592 67.6383 68.5864 67.5187 67.8603C66.2939 67.6626 65.0838 67.2472 63.8816 66.7094H63.8818ZM79.4368 66.497C80.2941 66.3728 81.0238 65.9526 81.418 65.268C81.8143 64.5833 81.8123 63.7424 81.4915 62.9361C81.1481 62.0744 80.4445 61.2588 79.4623 60.6924C78.4834 60.1273 77.4236 59.9283 76.5021 60.0605C75.6448 60.1848 74.9151 60.6049 74.5209 61.2896C74.1247 61.9742 74.1267 62.8152 74.4474 63.6215C74.5957 63.9935 74.8116 64.3556 75.0862 64.6942C75.1022 64.7102 75.1163 64.7276 75.1323 64.747C75.139 64.755 75.1437 64.7617 75.1497 64.769C75.5038 65.1858 75.9495 65.5606 76.4767 65.8652C77.4556 66.4302 78.5154 66.6293 79.4369 66.497L79.4368 66.497ZM49.9566 73.4171C49.8323 73.6228 49.6993 73.8286 49.5577 74.033C49.3325 74.3569 49.0913 74.6716 48.8347 74.9748L48.8334 74.9761C48.7966 75.0222 48.7565 75.0623 48.7104 75.0991L48.7091 75.0977L48.7077 75.0991C48.4939 75.2647 46.5509 75.3495 44.6718 75.3495V75.3462C43.3688 75.3462 42.0358 75.3061 41.2692 75.228C41.0568 75.2867 40.8189 75.2473 40.6324 75.0984C40.5863 75.0616 40.5462 75.0216 40.5095 74.9755C37.7827 71.7566 37.347 67.9165 36.9106 64.0783C36.7014 62.2414 36.4923 60.4058 36.0212 58.6678L36.0145 58.6424C35.8488 57.943 35.6103 57.5569 35.3824 57.4307C35.3604 57.418 35.347 57.4113 35.347 57.4113C35.3437 57.4113 35.3437 57.4194 35.3297 57.4334C35.1793 57.5917 35.0918 57.947 35.1365 58.4948C35.8983 61.0404 35.8675 63.932 35.8388 66.8256C35.7847 72.1017 35.7319 77.378 40.8283 79.8088C40.9866 79.5089 41.167 79.2297 41.3682 78.9758C42.1747 77.9545 43.3013 77.3226 44.5581 77.3226C45.8143 77.3226 46.9416 77.9545 47.748 78.9758C47.9685 79.255 48.1649 79.565 48.334 79.8996C49.4706 79.4033 50.4542 78.8062 51.2093 78.1087C51.8194 77.5456 52.2757 76.9184 52.533 76.2285C51.5721 75.4449 50.7323 74.481 49.9591 73.413L49.9566 73.4171ZM63.5291 81.0091C64.3356 81.3297 65.1768 81.3317 65.8618 80.9356V80.9369L65.8631 80.9356C66.5467 80.5415 66.965 79.8134 67.0893 78.9551C67.2216 78.044 67.0285 76.9999 66.4792 76.0314C66.4712 76.02 66.4645 76.0093 66.4585 75.996C65.8919 75.0148 65.076 74.3107 64.214 73.9674C63.4075 73.6468 62.5663 73.6448 61.8813 74.0409V74.0396L61.88 74.0409C61.1964 74.435 60.7781 75.1631 60.6538 76.0214C60.595 76.4235 60.601 76.853 60.6712 77.2885C60.6745 77.3059 60.6779 77.3239 60.6806 77.3413L60.6819 77.3527C60.7761 77.8844 60.9692 78.4254 61.2632 78.9437C61.2712 78.9551 61.2779 78.9658 61.2839 78.9791C61.8506 79.9604 62.6664 80.6644 63.5284 81.0077L63.5291 81.0091ZM34.5415 72.2661C34.3256 72.3857 34.1071 72.4973 33.8866 72.6028C33.5178 72.7765 33.1429 72.9314 32.7627 73.067V73.0657C32.7166 73.0817 32.6672 73.0944 32.6177 73.1011C32.3545 73.1378 30.6319 72.2374 29.0014 71.2976C27.8695 70.645 26.7309 69.9423 26.1088 69.4908C25.9043 69.4347 25.7272 69.2911 25.6364 69.084C25.633 69.0774 25.6297 69.0713 25.627 69.0667H25.6284L25.6237 69.0553C25.603 69.0025 25.5883 68.9498 25.5802 68.897H25.5816C24.8312 64.7443 26.3721 61.2028 27.9143 57.6599C28.65 55.9713 29.385 54.2813 29.8447 52.556C29.848 52.5399 29.8527 52.5226 29.8574 52.5065C30.0652 51.8152 30.0505 51.3603 29.9149 51.1385C29.9002 51.1165 29.8955 51.1051 29.8955 51.1051C29.8942 51.1051 29.8875 51.1085 29.8668 51.1145C29.6576 51.1766 29.405 51.4398 29.1692 51.9368C28.5544 54.5252 27.0824 57.0152 25.6091 59.5048C22.9236 64.0456 20.2401 68.5877 23.4394 73.2414C23.7254 73.061 24.022 72.9094 24.3221 72.7898C25.5288 72.3096 26.8204 72.3256 27.9076 72.9528C28.9968 73.5814 29.6557 74.6908 29.8427 75.9774C29.8934 76.3288 29.9081 76.6941 29.8874 77.0675C31.1249 77.2078 32.2756 77.1824 33.2739 76.956C34.0851 76.7723 34.794 76.4563 35.362 75.9888C34.9216 74.8299 34.6758 73.5741 34.5394 72.2636L34.5415 72.2661ZM42.5017 85.6274C43.0382 86.3074 43.7659 86.7268 44.5564 86.7268C45.3483 86.7268 46.0746 86.3074 46.6112 85.6274C47.1859 84.898 47.542 83.8813 47.542 82.7498C47.542 81.6183 47.1859 80.6004 46.6112 79.8723C46.0746 79.1923 45.347 78.7728 44.5564 78.7728C43.7646 78.7728 43.0383 79.1943 42.5017 79.8723C41.927 80.6017 41.5709 81.6183 41.5709 82.7498C41.5709 83.8814 41.927 84.8993 42.5017 85.6274ZM21.7643 63.5653C21.517 63.5619 21.2725 63.5492 21.0312 63.5299C20.661 63.4998 20.2742 63.4484 19.8706 63.3749L19.8499 63.3716C19.8418 63.3702 19.8325 63.3682 19.8245 63.3669C19.7764 63.3589 19.7289 63.3448 19.6808 63.3255C19.4336 63.2246 18.3905 61.584 17.4504 59.9549H17.4517L17.4504 59.9536C16.7975 58.8234 16.1634 57.6472 15.8507 56.9464C15.8012 56.897 15.7578 56.8396 15.7244 56.7774C15.7177 56.7661 15.7117 56.7534 15.705 56.7407C15.6268 56.575 15.6121 56.3787 15.6796 56.1916C17.1009 52.2079 20.2154 49.9068 23.3306 47.6036C24.8153 46.5055 26.3 45.4073 27.5629 44.1402C27.5723 44.1289 27.5836 44.1195 27.593 44.1102C28.1168 43.6172 28.332 43.2151 28.326 42.9513C28.326 42.9292 28.3247 42.9159 28.3247 42.9159C28.3247 42.9159 28.3166 42.9145 28.2993 42.9092C28.0868 42.8584 27.736 42.96 27.2836 43.2712C25.4553 45.2069 22.9343 46.6291 20.4118 48.0498L20.4105 48.0484C15.8154 50.6387 11.2207 53.2291 11.6631 58.8594C12.0019 58.8447 12.332 58.8628 12.6513 58.9088C13.9363 59.0959 15.0462 59.7545 15.677 60.8445H15.6784C16.3071 61.9333 16.3232 63.2224 15.8414 64.4288C15.7091 64.7608 15.5394 65.0848 15.3336 65.3974C16.3345 66.1381 17.3435 66.6899 18.3204 66.9931C19.1136 67.2389 19.8867 67.3204 20.6129 67.2008C20.8107 65.9765 21.2263 64.7669 21.7642 63.5651L21.7643 63.5653ZM21.9767 79.1148C22.101 79.9718 22.5213 80.7012 23.2062 81.0953C23.8911 81.4914 24.7324 81.4894 25.5389 81.1687C26.4009 80.8254 27.2168 80.122 27.7834 79.1402C28.3487 78.1616 28.5478 77.1022 28.4155 76.1811C28.2912 75.3241 27.8709 74.5947 27.186 74.2006C26.5011 73.8045 25.6599 73.8065 24.8533 74.1271C24.4811 74.2754 24.119 74.4911 23.7802 74.7657C23.7642 74.7817 23.7468 74.7957 23.7274 74.8118C23.7194 74.8185 23.7127 74.8231 23.7054 74.8291C23.2884 75.1832 22.9135 75.6287 22.6088 76.1557C22.0435 77.1343 21.8444 78.1936 21.9767 79.1148L21.9767 79.1148ZM15.0542 49.645C14.8484 49.5208 14.6426 49.3879 14.4381 49.2463C14.114 49.0212 13.7993 48.78 13.4959 48.5235L13.4946 48.5222C13.4485 48.4855 13.4084 48.4454 13.3716 48.3993L13.373 48.3979L13.3716 48.3966C13.2059 48.1829 13.1211 46.2405 13.1211 44.3621H13.1244C13.1244 43.0596 13.1645 41.727 13.2427 40.9608C13.1839 40.7484 13.2233 40.5106 13.3723 40.3242C13.4091 40.2781 13.4492 40.238 13.4953 40.2013C16.7153 37.4754 20.5567 37.0399 24.3963 36.6037C26.2338 36.3946 28.0701 36.1855 29.8088 35.7146L29.8342 35.708C30.5338 35.5423 30.92 35.3038 31.0463 35.0761C31.059 35.054 31.0657 35.0407 31.0657 35.0407C31.0657 35.0373 31.0576 35.0373 31.0436 35.0233C30.8852 34.873 30.5298 34.7855 29.9818 34.8303C27.4353 35.5917 24.5427 35.561 21.648 35.5323C16.37 35.4782 11.0918 35.4254 8.66025 40.5199C8.96027 40.6782 9.23957 40.8586 9.49349 41.0597C10.5152 41.8659 11.1473 42.9921 11.1473 44.2484C11.1473 45.5042 10.5152 46.6311 9.49349 47.4372C9.21418 47.6576 8.90414 47.854 8.56938 48.023C9.06584 49.1592 9.66321 50.1425 10.3609 50.8973C10.9242 51.5071 11.5516 51.9634 12.2418 52.2205C13.0256 51.26 13.9899 50.4204 15.0583 49.6475L15.0542 49.645ZM7.45951 63.2127C7.13877 64.0189 7.13677 64.8599 7.53301 65.5446H7.53168L7.53301 65.5459C7.92725 66.2292 8.65558 66.6474 9.51421 66.7716C10.4256 66.9039 11.4701 66.7108 12.439 66.1618C12.4503 66.1537 12.461 66.1471 12.4744 66.1411C13.456 65.5746 14.1603 64.7591 14.5037 63.8974C14.8244 63.0912 14.8264 62.2502 14.4302 61.5655H14.4315L14.4302 61.5642C14.0359 60.8808 13.3076 60.4627 12.449 60.3385C12.0467 60.2797 11.617 60.2857 11.1814 60.3558C11.164 60.3592 11.146 60.3625 11.1286 60.3652L11.1172 60.3665C10.5853 60.4607 10.0441 60.6537 9.52558 60.9476C9.51422 60.9556 9.50353 60.9623 9.49016 60.9683C8.50858 61.5348 7.80429 62.3503 7.46089 63.212L7.45951 63.2127ZM16.2056 34.2354C16.086 34.0197 15.9744 33.8012 15.8688 33.5808C15.6951 33.2121 15.54 32.8374 15.4044 32.4573H15.4057C15.3897 32.4112 15.377 32.3618 15.3703 32.3124C15.3336 32.0492 16.2343 30.3272 17.1745 28.6973C17.8273 27.5658 18.5302 26.4276 18.9819 25.8057C19.038 25.6013 19.1817 25.4243 19.3888 25.3335C19.3955 25.3301 19.4015 25.3268 19.4062 25.3241V25.3255L19.4175 25.3208C19.4703 25.3001 19.5231 25.2854 19.5759 25.2774V25.2787C23.7301 24.5286 27.2729 26.0689 30.817 27.6106C32.5062 28.346 34.1968 29.0808 35.9228 29.5403C35.9388 29.5436 35.9562 29.5483 35.9722 29.553C36.6638 29.7607 37.1189 29.746 37.3407 29.6104C37.3627 29.5957 37.3741 29.5911 37.3741 29.5911C37.3741 29.5897 37.3708 29.5831 37.3647 29.5624C37.3026 29.3533 37.0393 29.1008 36.5422 28.865C33.9529 28.2505 31.4619 26.779 28.9715 25.3062C24.429 22.6217 19.8854 19.9391 15.23 23.1373C15.4104 23.4232 15.5621 23.7197 15.6817 24.0197C16.1621 25.226 16.1461 26.5171 15.5187 27.6039C14.8899 28.6927 13.78 29.3514 12.493 29.5383C12.1415 29.589 11.776 29.6037 11.4025 29.583C11.2622 30.8201 11.2875 31.9703 11.5141 32.9683C11.6978 33.7792 12.0139 34.4879 12.4816 35.0556C13.6409 34.6154 14.8971 34.3696 16.2081 34.2334L16.2056 34.2354ZM2.83956 42.1928C2.15933 42.7291 1.7397 43.4566 1.7397 44.2468C1.7397 45.0383 2.15933 45.7644 2.83956 46.3008C3.56922 46.8753 4.58624 47.2313 5.71813 47.2313C6.85003 47.2313 7.86834 46.8753 8.59671 46.3008C9.27694 45.7645 9.69656 45.0371 9.69656 44.2468C9.69656 43.4553 9.27494 42.7292 8.59671 42.1928C7.86704 41.6183 6.85003 41.2623 5.71813 41.2623C4.58624 41.2623 3.56792 41.6183 2.83956 42.1928ZM24.9095 21.4627C24.9129 21.2156 24.9256 20.9711 24.945 20.73C24.975 20.3599 25.0265 19.9732 25.1 19.5697L25.1033 19.549C25.1047 19.541 25.1067 19.5317 25.108 19.5236C25.116 19.4755 25.13 19.4281 25.1494 19.38C25.2503 19.1329 26.8915 18.0902 28.5212 17.1504V17.1517L28.5225 17.1504C29.6531 16.4978 30.8297 15.8639 31.5307 15.5513C31.5802 15.5019 31.6376 15.4584 31.6998 15.425C31.7111 15.4184 31.7238 15.4123 31.7365 15.4057C31.9023 15.3275 32.0987 15.3128 32.2858 15.3803C36.2709 16.801 38.5729 19.9145 40.8769 23.0285C41.9754 24.5127 43.0739 25.9968 44.3415 27.2593C44.3528 27.2687 44.3622 27.28 44.3716 27.2894C44.8647 27.8131 45.2669 28.0281 45.5309 28.0221C45.5529 28.0221 45.5663 28.0208 45.5663 28.0208C45.5663 28.0208 45.5676 28.0128 45.573 27.9954C45.6238 27.783 45.5222 27.4323 45.2108 26.9801C43.2744 25.1525 41.8517 22.6323 40.4306 20.1108L40.4319 20.1095C37.8407 15.516 35.2493 10.923 29.6171 11.3652C29.6318 11.7038 29.6137 12.0338 29.5676 12.3531C29.3805 13.6376 28.7217 14.747 27.6312 15.3777V15.379C26.5421 16.0076 25.2525 16.0236 24.0457 15.542C23.7136 15.4097 23.3895 15.2401 23.0768 15.0343C22.3358 16.0349 21.7838 17.0436 21.4805 18.0201C21.2346 18.813 21.153 19.5858 21.2727 20.3118C22.4975 20.5095 23.7075 20.925 24.9097 21.4627L24.9095 21.4627ZM9.3545 21.6751C8.4972 21.7994 7.76753 22.2195 7.37329 22.9042C6.97705 23.5889 6.97906 24.4298 7.29979 25.2361C7.64324 26.0978 8.34686 26.9133 9.32906 27.4797C10.308 28.0448 11.3677 28.2439 12.2892 28.1116C13.1465 27.9874 13.8762 27.5672 14.2704 26.8826C14.6667 26.1979 14.6647 25.357 14.3439 24.5507C14.1956 24.1786 13.9798 23.8166 13.7051 23.478C13.6891 23.4619 13.6751 23.4446 13.659 23.4252C13.6523 23.4172 13.6477 23.4105 13.6417 23.4031C13.2875 22.9863 12.8418 22.6116 12.3146 22.307C11.3357 21.7419 10.2759 21.5429 9.35445 21.6751L9.3545 21.6751ZM38.8347 14.755C38.959 14.5493 39.092 14.3436 39.2336 14.1392C39.4588 13.8152 39.7001 13.5006 39.9566 13.1974L39.958 13.196C39.9947 13.1499 40.0348 13.1099 40.0809 13.0731L40.0823 13.0745L40.0836 13.0731C40.2974 12.9075 42.2405 12.8226 44.1196 12.8226V12.826C45.4226 12.826 46.7556 12.8661 47.5221 12.9442C47.7346 12.8854 47.9725 12.9248 48.1589 13.0738C48.205 13.1105 48.2451 13.1506 48.2818 13.1967C51.0087 16.4156 51.4444 20.2557 51.8807 24.0939C52.0899 25.9307 52.299 27.7664 52.7701 29.5044L52.7768 29.5298C52.9425 30.2291 53.181 30.6152 53.4089 30.7415C53.431 30.7541 53.4443 30.7608 53.4443 30.7608C53.4477 30.7608 53.4477 30.7528 53.4617 30.7388C53.612 30.5805 53.6996 30.2251 53.6548 29.6774C52.8931 27.1318 52.9238 24.2402 52.9525 21.3466C53.0066 16.0704 53.0594 10.7941 47.9631 8.3634C47.8047 8.66331 47.6243 8.94252 47.4232 9.19635C46.6167 10.2177 45.49 10.8496 44.2333 10.8496C42.9771 10.8496 41.8498 10.2177 41.0434 9.19635C40.8229 8.91714 40.6264 8.60721 40.4574 8.27257C39.3208 8.76885 38.3371 9.36601 37.582 10.0634C36.972 10.6265 36.5156 11.2537 36.2583 11.9437C37.2192 12.7272 38.0591 13.6911 38.8323 14.7592L38.8347 14.755ZM25.2623 7.16309C24.4558 6.84247 23.6145 6.84047 22.9295 7.23657V7.23523L22.9282 7.23657C22.2446 7.63067 21.8263 8.35874 21.7021 9.21706C21.5697 10.1282 21.7629 11.1722 22.3121 12.1408C22.3201 12.1521 22.3268 12.1628 22.3328 12.1762C22.8995 13.1574 23.7153 13.8615 24.5773 14.2047C25.3838 14.5253 26.2251 14.5273 26.91 14.1313V14.1326L26.9114 14.1313C27.5949 13.7372 28.0132 13.0091 28.1375 12.1508C28.1963 11.7486 28.1903 11.3191 28.1201 10.8836C28.1168 10.8663 28.1134 10.8482 28.1108 10.8309L28.1094 10.8195C28.0152 10.2878 27.8221 9.74677 27.5281 9.22843C27.5201 9.21707 27.5134 9.20638 27.5074 9.19302C26.9408 8.21179 26.1249 7.50776 25.2629 7.16448L25.2623 7.16309ZM46.2905 2.54616C45.7539 1.86617 45.0263 1.44669 44.2357 1.44669C43.4439 1.44669 42.7176 1.86617 42.181 2.54616C41.6063 3.27556 41.2502 4.29221 41.2502 5.4237C41.2502 6.55519 41.6063 7.57314 42.181 8.30125C42.7175 8.98124 43.4452 9.40072 44.2357 9.40072C45.0276 9.40072 45.7539 8.98124 46.2905 8.30125C46.8652 7.57185 47.2213 6.55519 47.2213 5.4237C47.2213 4.29221 46.8652 3.27426 46.2905 2.54616Z" fill="#1C2C40"/>
</svg>
