<svg width="25" height="25" viewBox="0 0 25 25" fill="none" xmlns="http://www.w3.org/2000/svg">
<path d="M12.5 0.25C10.1266 0.25 7.80655 0.953788 5.83316 2.27236C3.85977 3.59094 2.3217 5.46508 1.41345 7.6578C0.505199 9.85051 0.267559 12.2633 0.730582 14.5911C1.1936 16.9189 2.33649 19.057 4.01472 20.7353C5.69295 22.4135 7.83115 23.5564 10.1589 24.0194C12.4867 24.4824 14.8995 24.2448 17.0922 23.3365C19.2849 22.4283 21.1591 20.8902 22.4776 18.9168C23.7962 16.9434 24.5 14.6234 24.5 12.25C24.496 9.06862 23.2305 6.01868 20.9809 3.7691C18.7313 1.51953 15.6814 0.253969 12.5 0.25ZM17.1154 13.1731H13.4231V16.8654C13.4231 17.1102 13.3258 17.345 13.1527 17.5181C12.9796 17.6912 12.7448 17.7885 12.5 17.7885C12.2552 17.7885 12.0204 17.6912 11.8473 17.5181C11.6742 17.345 11.5769 17.1102 11.5769 16.8654V13.1731H7.88462C7.6398 13.1731 7.40502 13.0758 7.23191 12.9027C7.05879 12.7296 6.96154 12.4948 6.96154 12.25C6.96154 12.0052 7.05879 11.7704 7.23191 11.5973C7.40502 11.4242 7.6398 11.3269 7.88462 11.3269H11.5769V7.63461C11.5769 7.3898 11.6742 7.15501 11.8473 6.9819C12.0204 6.80879 12.2552 6.71154 12.5 6.71154C12.7448 6.71154 12.9796 6.80879 13.1527 6.9819C13.3258 7.15501 13.4231 7.3898 13.4231 7.63461V11.3269H17.1154C17.3602 11.3269 17.595 11.4242 17.7681 11.5973C17.9412 11.7704 18.0385 12.0052 18.0385 12.25C18.0385 12.4948 17.9412 12.7296 17.7681 12.9027C17.595 13.0758 17.3602 13.1731 17.1154 13.1731Z" fill="url(#paint0_linear_462_279)"/>
<defs>
<linearGradient id="paint0_linear_462_279" x1="11.4636" y1="0.250007" x2="38.2732" y2="22.8626" gradientUnits="userSpaceOnUse">
<stop offset="0.00880387" stop-color="#002F59"/>
<stop offset="1"/>
</linearGradient>
</defs>
</svg>
