<svg width="48" height="49" viewBox="0 0 48 49" fill="none" xmlns="http://www.w3.org/2000/svg">
<rect y="0.5" width="48" height="48" rx="16" fill="url(#paint0_linear_62_2252)"/>
<path d="M23.2204 26.9587L21.6787 28.5003C21.3537 28.8253 20.837 28.8253 20.5037 28.5087C20.412 28.417 20.3204 28.3337 20.2287 28.242C19.386 27.3937 18.6088 26.4827 17.9037 25.517C17.2204 24.567 16.6704 23.617 16.2704 22.6753C15.8787 21.7253 15.6787 20.817 15.6787 19.9503C15.6787 19.3837 15.7787 18.842 15.9787 18.342C16.1787 17.8337 16.4954 17.367 16.937 16.9503C17.4704 16.4253 18.0537 16.167 18.6704 16.167C18.9037 16.167 19.137 16.217 19.3454 16.317C19.562 16.417 19.7537 16.567 19.9037 16.7837L21.837 19.5087C21.987 19.717 22.0954 19.9087 22.1704 20.092C22.2454 20.267 22.287 20.442 22.287 20.6003C22.287 20.8003 22.2287 21.0003 22.112 21.192C22.0037 21.3837 21.8454 21.5837 21.6454 21.7837L21.012 22.442C20.9204 22.5337 20.8787 22.642 20.8787 22.7753C20.8787 22.842 20.887 22.9003 20.9037 22.967C20.9287 23.0337 20.9537 23.0837 20.9704 23.1337C21.1204 23.4087 21.3787 23.767 21.7454 24.2003C22.1204 24.6337 22.5204 25.0753 22.9537 25.517C23.037 25.6003 23.1287 25.6837 23.212 25.767C23.5454 26.092 23.5537 26.6253 23.2204 26.9587ZM32.3204 29.7753C32.3193 30.0898 32.2481 30.4001 32.112 30.6837C31.9704 30.9837 31.787 31.267 31.5454 31.5337C31.137 31.9837 30.687 32.3087 30.1787 32.517C30.1704 32.517 30.162 32.5253 30.1537 32.5253C29.662 32.7253 29.1287 32.8337 28.5537 32.8337C27.7037 32.8337 26.7954 32.6337 25.837 32.2253C24.8787 31.817 23.9204 31.267 22.9704 30.5753C22.6454 30.3337 22.3204 30.092 22.012 29.8337L24.737 27.1087C24.9704 27.2837 25.1787 27.417 25.3537 27.5087C25.3954 27.5253 25.4454 27.5503 25.5037 27.5753C25.5704 27.6003 25.637 27.6087 25.712 27.6087C25.8537 27.6087 25.962 27.5587 26.0537 27.467L26.687 26.842C26.8954 26.6337 27.0954 26.4753 27.287 26.3753C27.4787 26.2587 27.6704 26.2003 27.8787 26.2003C28.037 26.2003 28.2037 26.2337 28.387 26.3087C28.5704 26.3837 28.762 26.492 28.9704 26.6337L31.7287 28.592C31.9454 28.742 32.0954 28.917 32.187 29.1253C32.2704 29.3337 32.3204 29.542 32.3204 29.7753Z" fill="white"/>
<defs>
<linearGradient id="paint0_linear_62_2252" x1="6.50237" y1="2.16728" x2="46.438" y2="51.1589" gradientUnits="userSpaceOnUse">
<stop stop-color="#FF5D5D"/>
<stop offset="0.436071" stop-color="#C04CAD"/>
<stop offset="1" stop-color="#1857D1"/>
</linearGradient>
</defs>
</svg>
