<svg width="48" height="49" viewBox="0 0 48 49" fill="none" xmlns="http://www.w3.org/2000/svg">
<rect y="0.5" width="48" height="48" rx="16" fill="url(#paint0_linear_62_2260)"/>
<path d="M24 14.75C22.0716 14.75 20.1866 15.3218 18.5832 16.3932C16.9798 17.4645 15.7301 18.9873 14.9922 20.7688C14.2542 22.5504 14.0611 24.5108 14.4373 26.4021C14.8136 28.2934 15.7422 30.0307 17.1057 31.3943C18.4693 32.7579 20.2066 33.6865 22.0979 34.0627C23.9892 34.4389 25.9496 34.2458 27.7312 33.5078C29.5127 32.7699 31.0355 31.5202 32.1068 29.9168C33.1782 28.3134 33.75 26.4284 33.75 24.5C33.7473 21.915 32.7192 19.4366 30.8913 17.6087C29.0634 15.7808 26.585 14.7527 24 14.75ZM31.3472 20.75H28.0256C27.6429 19.2439 27.0001 17.8162 26.1263 16.5312C27.2427 16.8313 28.2839 17.3616 29.1831 18.0882C30.0823 18.8148 30.8194 19.7215 31.3472 20.75ZM24 16.2603C25.125 17.4791 25.9688 19.0306 26.4722 20.75H21.5278C22.0313 19.0306 22.875 17.4809 24 16.2603ZM21 24.5C21.0001 23.7461 21.0628 22.9935 21.1875 22.25H26.8125C27.0613 23.7397 27.0613 25.2603 26.8125 26.75H21.1875C21.0628 26.0065 21.0001 25.2539 21 24.5ZM21.5278 28.25H26.4722C25.9688 29.9694 25.125 31.5191 24 32.7397C22.875 31.5191 22.0313 29.9694 21.5278 28.25ZM26.1263 32.4688C27.0001 31.1838 27.6429 29.7561 28.0256 28.25H31.3472C30.8194 29.2785 30.0823 30.1852 29.1831 30.9118C28.2839 31.6384 27.2427 32.1687 26.1263 32.4688ZM28.3322 26.75C28.5559 25.2583 28.5559 23.7417 28.3322 22.25H31.9378C32.3541 23.7211 32.3541 25.2789 31.9378 26.75H28.3322Z" fill="white"/>
<defs>
<linearGradient id="paint0_linear_62_2260" x1="6.50237" y1="2.16728" x2="46.438" y2="51.1589" gradientUnits="userSpaceOnUse">
<stop stop-color="#FF5D5D"/>
<stop offset="0.436071" stop-color="#C04CAD"/>
<stop offset="1" stop-color="#1857D1"/>
</linearGradient>
</defs>
</svg>
