<svg width="48" height="49" viewBox="0 0 48 49" fill="none" xmlns="http://www.w3.org/2000/svg">
<rect y="0.5" width="48" height="48" rx="16" fill="url(#paint0_linear_62_2256)"/>
<path d="M28.167 17.417H19.8337C17.3337 17.417 15.667 18.667 15.667 21.5837V27.417C15.667 30.3337 17.3337 31.5837 19.8337 31.5837H28.167C30.667 31.5837 32.3337 30.3337 32.3337 27.417V21.5837C32.3337 18.667 30.667 17.417 28.167 17.417ZM28.5587 22.492L25.9503 24.5753C25.4003 25.017 24.7003 25.2337 24.0003 25.2337C23.3003 25.2337 22.592 25.017 22.0503 24.5753L19.442 22.492C19.3145 22.3862 19.2329 22.2351 19.2142 22.0704C19.1956 21.9058 19.2414 21.7403 19.342 21.6087C19.5587 21.342 19.9503 21.292 20.217 21.5087L22.8253 23.592C23.4587 24.1003 24.5337 24.1003 25.167 23.592L27.7753 21.5087C28.042 21.292 28.442 21.3337 28.6503 21.6087C28.867 21.8753 28.8253 22.2753 28.5587 22.492Z" fill="white"/>
<defs>
<linearGradient id="paint0_linear_62_2256" x1="6.50237" y1="2.16728" x2="46.438" y2="51.1589" gradientUnits="userSpaceOnUse">
<stop stop-color="#FF5D5D"/>
<stop offset="0.436071" stop-color="#C04CAD"/>
<stop offset="1" stop-color="#1857D1"/>
</linearGradient>
</defs>
</svg>
