<svg width="113" height="92" viewBox="0 0 113 92" fill="none" xmlns="http://www.w3.org/2000/svg">
<g clip-path="url(#clip0_178_1745)">
<g clip-path="url(#clip1_178_1745)">
<path fill-rule="evenodd" clip-rule="evenodd" d="M110.553 61.2417C110.189 61.239 109.841 61.0932 109.584 60.8359C109.327 60.5785 109.181 60.2303 109.178 59.8664C109.2 59.5156 109.354 59.1862 109.61 58.9454C109.866 58.7046 110.205 58.5705 110.556 58.5705C110.907 58.5705 111.246 58.7046 111.502 58.9454C111.758 59.1862 111.912 59.5156 111.934 59.8664C111.932 60.2316 111.786 60.5814 111.528 60.8392C111.269 61.097 110.919 61.2417 110.553 61.2417ZM110.553 58.2316C110.339 58.2309 110.126 58.2728 109.927 58.3547C109.728 58.4366 109.548 58.557 109.396 58.7089C109.244 58.8608 109.124 59.0413 109.042 59.24C108.96 59.4386 108.918 59.6515 108.919 59.8664C108.919 60.7694 109.65 61.4752 110.553 61.4752C111.462 61.4752 112.193 60.7694 112.193 59.8664C112.193 58.9634 111.462 58.2316 110.553 58.2316ZM110.242 59.7418V59.2229H110.553C110.719 59.2229 110.917 59.2748 110.917 59.472C110.917 59.6951 110.699 59.7418 110.512 59.7418H110.242ZM111.244 59.4772C111.244 59.0827 110.906 58.9374 110.564 58.9374H109.92V60.7746H110.247V60.0065H110.486L110.917 60.7746H111.316L110.818 59.9702C111.078 59.9183 111.244 59.7418 111.244 59.4772ZM100.937 36.1804C101.376 36.1804 101.812 36.0938 102.218 35.9256C102.624 35.7573 102.993 35.5108 103.304 35.1999C103.615 34.8891 103.861 34.5201 104.029 34.114C104.198 33.7079 104.284 33.2726 104.284 32.833C104.284 32.3934 104.198 31.9581 104.029 31.552C103.861 31.1459 103.615 30.7769 103.304 30.466C102.993 30.1552 102.624 29.9086 102.218 29.7404C101.812 29.5722 101.376 29.4856 100.937 29.4856C100.049 29.4856 99.1976 29.8383 98.5698 30.466C97.9421 31.0938 97.5894 31.9452 97.5894 32.833C97.5894 33.7208 97.9421 34.5722 98.5698 35.1999C99.1976 35.8277 100.049 36.1804 100.937 36.1804ZM91.9585 39.0711V43.9806H98.1655V61.2469H103.708V43.9806H109.915V39.0763L91.9585 39.0711ZM43.616 36.1804C44.0556 36.1804 44.4909 36.0938 44.897 35.9256C45.3031 35.7573 45.6721 35.5108 45.983 35.1999C46.2938 34.8891 46.5404 34.5201 46.7086 34.114C46.8768 33.7079 46.9634 33.2726 46.9634 32.833C46.9634 32.3934 46.8768 31.9581 46.7086 31.552C46.5404 31.1459 46.2938 30.7769 45.983 30.466C45.6721 30.1552 45.3031 29.9086 44.897 29.7404C44.4909 29.5722 44.0556 29.4856 43.616 29.4856C42.7282 29.4856 41.8768 29.8383 41.249 30.466C40.6213 31.0938 40.2686 31.9452 40.2686 32.833C40.2686 33.7208 40.6213 34.5722 41.249 35.1999C41.8768 35.8277 42.7282 36.1804 43.616 36.1804ZM34.6429 43.9806H40.8551V61.2469H46.3925V43.9806H52.6046V39.0763H34.6429V43.9858V43.9806ZM82.5391 61.2469H88.0818V39.0866H82.5391V61.2469ZM71.3293 51.2722C71.3293 54.2303 69.6634 57.2767 66.1551 57.2767C62.6001 57.2767 62.0033 53.9968 62.0033 51.3656V39.0866H56.4606V52.9329C56.4606 57.4635 58.8635 61.8904 64.6345 61.8904C67.9092 61.8904 70.5404 59.9079 71.5109 57.6867H71.6043V61.2469H76.8667V39.0866H71.3293V51.2722ZM23.6407 38.4379C20.3607 38.4379 17.7295 40.4256 16.759 42.6416H16.6656V39.0866H11.4084V61.2469H16.9511V49.0561C16.9511 46.098 18.6118 43.0568 22.1201 43.0568C25.675 43.0568 26.2719 46.3315 26.2719 48.9679V61.2469H31.8145V47.3902C31.8145 42.87 29.4117 38.4379 23.6407 38.4379ZM0.193359 61.2469H5.73601V39.0866H0.193359V61.2469Z" fill="#0077C5"/>
</g>
</g>
<defs>
<clipPath id="clip0_178_1745">
<rect width="112" height="91.0777" fill="white" transform="translate(0.193359 0.233032)"/>
</clipPath>
<clipPath id="clip1_178_1745">
<rect width="112" height="33.376" fill="white" transform="translate(0.193359 29)"/>
</clipPath>
</defs>
</svg>
