<svg width="113" height="92" viewBox="0 0 113 92" fill="none" xmlns="http://www.w3.org/2000/svg">
<g clip-path="url(#clip0_177_1740)">
<path d="M2.30123 42.4499L6.15598 49.4799L10.6194 49.4834L14.4083 42.4489L16.3074 42.4499V41.1751H10.5949V42.4489H12.2447L9.48571 47.57L6.68955 42.4499L8.69473 42.4489L8.69426 41.1751H0.405956L0.404297 42.4499H2.30123ZM51.414 42.4466L51.4132 41.1751L59.0561 41.1761V42.4466H57.1526V48.1853H58.9175C60.553 48.1853 61.6251 47.1012 61.6251 45.6298H62.8859V49.4725L51.4132 49.4734V48.187H53.34L53.3375 42.4466H51.414ZM32.8384 48.4074C31.437 48.382 30.8208 46.8271 30.8477 45.2821C30.8755 43.682 31.6383 42.2868 32.9512 42.3097C34.2641 42.3328 34.9572 43.7548 34.9291 45.3541C34.9024 46.8629 34.2819 48.4338 32.8384 48.4074ZM32.881 41C29.0432 41 27.0048 42.9219 27.0048 45.3335C27.0048 47.7784 28.9675 49.7274 32.9032 49.7274C36.8375 49.7274 38.7794 47.7784 38.7794 45.3335C38.7794 42.9219 36.7194 41 32.881 41ZM75.9235 42.4499L79.7781 49.4799L84.2416 49.4834L88.0305 42.4489L89.9296 42.4499V41.1751H84.2169V42.4489H85.8669L83.108 47.57L80.3118 42.4499L82.317 42.4489L82.3166 41.1751H74.0281L74.0265 42.4499H75.9235ZM106.463 48.4074C105.062 48.382 104.445 46.8271 104.472 45.2821C104.5 43.682 105.263 42.2868 106.576 42.3097C107.889 42.3328 108.582 43.7548 108.553 45.3541C108.527 46.8629 107.907 48.4338 106.463 48.4074ZM106.506 41C102.668 41 100.629 42.9219 100.629 45.3335C100.629 47.7784 102.592 49.7274 106.528 49.7274C110.462 49.7274 112.404 47.7784 112.404 45.3335C112.404 42.9219 110.344 41 106.506 41Z" fill="#161618"/>
</g>
<defs>
<clipPath id="clip0_177_1740">
<rect width="112" height="91.0777" fill="white" transform="translate(0.404297)"/>
</clipPath>
</defs>
</svg>
